<svg width="400" height="400" viewBox="0 0 400 400" fill="none" xmlns="http://www.w3.org/2000/svg">
<rect width="400" height="400" rx="16" fill="#006341"/>
<path fill-rule="evenodd" clip-rule="evenodd" d="M194.283 67.7417C198.019 67.175 201.818 67.175 205.553 67.7417C209.759 68.395 213.802 70.0202 220.58 72.7397L279.298 96.423C283.823 98.2523 287.465 99.7223 290.16 101.078C292.749 102.401 295.338 104.042 296.669 106.631C297.575 108.387 298.025 110.306 298.025 112.226V177.559C298.025 178.642 297.594 179.68 296.829 180.446C296.063 181.212 295.024 181.642 293.941 181.642C292.858 181.642 291.82 181.212 291.054 180.446C290.288 179.68 289.858 178.642 289.858 177.559V123.496C287.212 124.819 283.659 126.248 279.323 128.004L273.541 130.331V177.534C273.541 193.214 263.414 204.484 249.694 211.671C235.974 218.858 217.844 222.451 200.041 222.451C182.237 222.451 164.189 218.882 150.469 211.671C136.668 204.484 126.541 193.133 126.541 177.534V130.331L120.751 127.995C116.226 126.166 112.584 124.696 109.889 123.332C107.3 122.017 104.719 120.376 103.38 117.779C102.492 116.048 102.028 114.13 102.028 112.185C102.028 110.239 102.492 108.321 103.38 106.591C104.711 104.01 107.3 102.368 109.889 101.054C112.568 99.6897 116.218 98.2115 120.751 96.3903L179.387 72.707C186.141 69.9793 190.167 68.3542 194.414 67.7008L194.283 67.7417ZM204.247 75.8022C201.351 75.3543 198.404 75.3543 195.508 75.8022C192.348 76.2922 189.236 77.5172 181.788 80.5143L123.805 103.871C119.044 105.79 115.736 107.138 113.433 108.314C110.983 109.563 110.534 110.217 110.477 110.323C110.18 110.9 110.026 111.54 110.026 112.189C110.026 112.838 110.18 113.478 110.477 114.055C110.534 114.161 110.983 114.823 113.433 116.064C115.753 117.248 119.06 118.595 123.805 120.506L181.788 143.863C189.196 146.852 192.323 148.085 195.508 148.575C198.404 149.023 201.351 149.023 204.247 148.575C207.407 148.085 210.519 146.86 217.967 143.871L275.95 120.515C280.711 118.596 284.027 117.248 286.322 116.072C288.772 114.823 289.221 114.169 289.278 114.063C289.575 113.486 289.729 112.846 289.729 112.197C289.729 111.548 289.575 110.908 289.278 110.331C289.221 110.225 288.772 109.571 286.322 108.322C284.002 107.138 280.687 105.798 275.95 103.879L217.967 80.5225C210.559 77.5335 207.432 76.3085 204.247 75.8185V75.8022ZM220.498 151.671L265.252 133.622V177.559C265.252 189.074 258 198.139 245.733 204.509C233.483 210.912 216.823 214.309 199.918 214.309C183.013 214.309 166.353 210.887 154.103 204.509C141.853 198.123 134.585 189.074 134.585 177.559V133.704L179.257 151.752C186.01 154.48 190.037 156.105 194.283 156.758C198.007 157.33 201.805 157.33 205.553 156.758C209.759 156.105 213.802 154.48 220.58 151.76L220.498 151.671Z" fill="white"/>
<path d="M74.32 338V303.92H95.056V307.952H78.448V318.944H94.48V322.88H78.448V333.968H95.44V338H74.32ZM111.597 338.576C109.357 338.576 107.421 338.032 105.789 336.944C104.157 335.856 102.893 334.32 101.997 332.336C101.133 330.352 100.701 328 100.701 325.28C100.701 322.56 101.133 320.208 101.997 318.224C102.893 316.24 104.157 314.704 105.789 313.616C107.421 312.528 109.357 311.984 111.597 311.984C113.389 311.984 114.957 312.416 116.301 313.28C117.645 314.112 118.621 315.056 119.229 316.112V303.92H123.261V338H119.613L119.469 334.16C118.765 335.536 117.725 336.624 116.349 337.424C114.973 338.192 113.389 338.576 111.597 338.576ZM111.837 334.736C113.373 334.736 114.685 334.352 115.773 333.584C116.893 332.816 117.741 331.728 118.317 330.32C118.925 328.88 119.229 327.2 119.229 325.28C119.229 323.296 118.925 321.6 118.317 320.192C117.741 318.784 116.893 317.712 115.773 316.976C114.653 316.208 113.309 315.824 111.741 315.824C109.661 315.824 107.997 316.672 106.749 318.368C105.533 320.032 104.925 322.336 104.925 325.28C104.925 328.192 105.533 330.496 106.749 332.192C107.997 333.888 109.693 334.736 111.837 334.736ZM140.187 338.576C137.659 338.576 135.643 337.728 134.139 336.032C132.635 334.304 131.883 331.936 131.883 328.928V312.56H135.915V327.824C135.915 330.288 136.347 332.112 137.211 333.296C138.107 334.448 139.467 335.024 141.291 335.024C143.275 335.024 144.843 334.384 145.995 333.104C147.147 331.792 147.723 330 147.723 327.728V312.56H151.755V338H147.915V331.712L148.539 332.048C148.027 334.128 147.051 335.744 145.611 336.896C144.171 338.016 142.363 338.576 140.187 338.576ZM171.416 338.576C169.048 338.576 166.984 338.032 165.224 336.944C163.464 335.856 162.104 334.32 161.144 332.336C160.184 330.32 159.704 327.968 159.704 325.28C159.704 322.592 160.184 320.256 161.144 318.272C162.104 316.288 163.464 314.752 165.224 313.664C166.984 312.544 169.048 311.984 171.416 311.984C173.304 311.984 174.984 312.336 176.456 313.04C177.928 313.712 179.144 314.704 180.104 316.016C181.064 317.328 181.72 318.928 182.072 320.816L177.848 321.104C177.464 319.408 176.696 318.112 175.544 317.216C174.424 316.288 173.048 315.824 171.416 315.824C169.08 315.824 167.24 316.672 165.896 318.368C164.584 320.032 163.928 322.336 163.928 325.28C163.928 328.224 164.584 330.544 165.896 332.24C167.24 333.904 169.08 334.736 171.416 334.736C173.048 334.736 174.456 334.256 175.64 333.296C176.856 332.336 177.656 330.896 178.04 328.976L182.264 329.264C181.912 331.152 181.24 332.8 180.248 334.208C179.256 335.584 178.008 336.656 176.504 337.424C175 338.192 173.304 338.576 171.416 338.576ZM196.165 338.576C194.565 338.576 193.125 338.288 191.845 337.712C190.565 337.136 189.557 336.336 188.821 335.312C188.085 334.256 187.717 333.04 187.717 331.664C187.717 329.488 188.357 327.808 189.637 326.624C190.949 325.408 192.997 324.528 195.781 323.984L204.325 322.256C204.325 320.08 203.829 318.464 202.837 317.408C201.877 316.352 200.485 315.824 198.661 315.824C196.901 315.824 195.525 316.224 194.533 317.024C193.541 317.792 192.853 318.912 192.469 320.384L188.197 320.048C188.677 317.648 189.813 315.712 191.605 314.24C193.429 312.736 195.781 311.984 198.661 311.984C201.733 311.984 204.117 312.912 205.813 314.768C207.509 316.592 208.357 319.12 208.357 322.352V332.912C208.357 333.488 208.485 333.888 208.741 334.112C208.997 334.336 209.381 334.448 209.893 334.448H211.525V338C211.333 338.032 211.029 338.048 210.613 338.048C210.197 338.08 209.797 338.096 209.413 338.096C208.325 338.096 207.397 337.92 206.629 337.568C205.893 337.216 205.333 336.656 204.949 335.888C204.565 335.088 204.357 334.064 204.325 332.816H205.093C204.869 333.904 204.325 334.896 203.461 335.792C202.629 336.656 201.573 337.344 200.293 337.856C199.013 338.336 197.637 338.576 196.165 338.576ZM196.549 335.024C198.277 335.024 199.717 334.736 200.869 334.16C202.021 333.552 202.885 332.72 203.461 331.664C204.037 330.576 204.325 329.328 204.325 327.92V325.712L196.549 327.248C194.821 327.568 193.621 328.064 192.949 328.736C192.277 329.376 191.941 330.224 191.941 331.28C191.941 332.464 192.341 333.392 193.141 334.064C193.973 334.704 195.109 335.024 196.549 335.024ZM232.05 338C229.586 338 227.746 337.424 226.53 336.272C225.314 335.12 224.706 333.36 224.706 330.992V306.608H228.738V330.992C228.738 332.176 229.01 333.056 229.554 333.632C230.098 334.176 230.93 334.448 232.05 334.448H238.866V338H232.05ZM216.306 316.112V312.56H238.866V316.112H216.306ZM256.752 338V312.56H260.784V338H256.752ZM246.528 338V334.448H269.568V338H246.528ZM247.008 316.112V312.56H260.784V316.112H247.008ZM256.368 308.576V303.872H260.592V308.576H256.368ZM285.869 338.576C283.533 338.576 281.485 338.032 279.725 336.944C277.997 335.856 276.653 334.32 275.693 332.336C274.733 330.32 274.253 327.968 274.253 325.28C274.253 322.56 274.733 320.208 275.693 318.224C276.653 316.24 277.997 314.704 279.725 313.616C281.485 312.528 283.533 311.984 285.869 311.984C288.205 311.984 290.237 312.528 291.965 313.616C293.725 314.704 295.085 316.24 296.045 318.224C297.005 320.208 297.485 322.56 297.485 325.28C297.485 327.968 297.005 330.32 296.045 332.336C295.085 334.32 293.725 335.856 291.965 336.944C290.237 338.032 288.205 338.576 285.869 338.576ZM285.869 334.736C288.205 334.736 290.013 333.904 291.293 332.24C292.605 330.544 293.261 328.224 293.261 325.28C293.261 322.336 292.605 320.032 291.293 318.368C290.013 316.672 288.205 315.824 285.869 315.824C283.533 315.824 281.709 316.672 280.397 318.368C279.117 320.032 278.477 322.336 278.477 325.28C278.477 328.224 279.117 330.544 280.397 332.24C281.709 333.904 283.533 334.736 285.869 334.736ZM304.282 338V312.56H307.978L308.122 319.04L307.642 318.608C307.962 317.104 308.538 315.872 309.37 314.912C310.234 313.92 311.258 313.184 312.442 312.704C313.626 312.224 314.874 311.984 316.186 311.984C318.138 311.984 319.754 312.416 321.034 313.28C322.346 314.144 323.338 315.312 324.01 316.784C324.682 318.224 325.018 319.84 325.018 321.632V338H320.986V322.784C320.986 320.416 320.522 318.624 319.594 317.408C318.666 316.16 317.242 315.536 315.322 315.536C314.01 315.536 312.826 315.824 311.77 316.4C310.714 316.944 309.866 317.76 309.226 318.848C308.618 319.904 308.314 321.216 308.314 322.784V338H304.282Z" fill="white"/>
</svg>
