<svg width="400" height="400" viewBox="0 0 400 400" fill="none" xmlns="http://www.w3.org/2000/svg">
<rect width="400" height="400" rx="16" fill="#F9F9FF"/>
<path fill-rule="evenodd" clip-rule="evenodd" d="M194.283 70.7417C198.019 70.175 201.818 70.175 205.553 70.7417C209.759 71.395 213.802 73.0202 220.58 75.7397L279.298 99.423C283.823 101.252 287.465 102.722 290.16 104.078C292.749 105.401 295.338 107.042 296.669 109.631C297.575 111.387 298.025 113.306 298.025 115.226V180.559C298.025 181.642 297.594 182.68 296.829 183.446C296.063 184.212 295.024 184.642 293.941 184.642C292.858 184.642 291.82 184.212 291.054 183.446C290.288 182.68 289.858 181.642 289.858 180.559V126.496C287.212 127.819 283.659 129.248 279.323 131.004L273.541 133.331V180.534C273.541 196.214 263.414 207.484 249.694 214.671C235.974 221.858 217.844 225.451 200.041 225.451C182.238 225.451 164.189 221.882 150.469 214.671C136.667 207.484 126.541 196.133 126.541 180.534V133.331L120.751 130.995C116.226 129.166 112.584 127.696 109.889 126.332C107.3 125.017 104.719 123.376 103.38 120.779C102.492 119.048 102.028 117.13 102.028 115.185C102.028 113.239 102.492 111.321 103.38 109.591C104.711 107.01 107.3 105.368 109.889 104.054C112.568 102.69 116.218 101.212 120.751 99.3903L179.387 75.707C186.141 72.9793 190.167 71.3542 194.414 70.7008L194.283 70.7417ZM204.247 78.8022C201.351 78.3543 198.404 78.3543 195.508 78.8022C192.348 79.2922 189.236 80.5172 181.788 83.5143L123.805 106.871C119.044 108.79 115.736 110.138 113.433 111.314C110.983 112.563 110.534 113.216 110.477 113.323C110.18 113.9 110.026 114.54 110.026 115.189C110.026 115.838 110.18 116.478 110.477 117.055C110.534 117.161 110.983 117.823 113.433 119.064C115.753 120.248 119.06 121.596 123.805 123.507L181.788 146.863C189.196 149.852 192.323 151.085 195.508 151.575C198.404 152.023 201.351 152.023 204.247 151.575C207.407 151.085 210.519 149.86 217.967 146.871L275.95 123.515C280.711 121.596 284.027 120.248 286.322 119.072C288.772 117.823 289.221 117.169 289.278 117.063C289.575 116.486 289.729 115.846 289.729 115.197C289.729 114.548 289.575 113.908 289.278 113.331C289.221 113.225 288.772 112.571 286.322 111.322C284.002 110.138 280.687 108.798 275.95 106.879L217.967 83.5225C210.56 80.5335 207.432 79.3085 204.247 78.8185V78.8022ZM220.498 154.671L265.252 136.622V180.559C265.252 192.074 258 201.139 245.733 207.509C233.483 213.912 216.823 217.309 199.918 217.309C183.013 217.309 166.353 213.887 154.103 207.509C141.853 201.123 134.585 192.074 134.585 180.559V136.704L179.257 154.752C186.01 157.48 190.037 159.105 194.283 159.758C198.007 160.33 201.805 160.33 205.553 159.758C209.759 159.105 213.802 157.48 220.58 154.76L220.498 154.671Z" fill="black"/>
<path d="M74.32 341V306.92H95.056V310.952H78.448V321.944H94.48V325.88H78.448V336.968H95.44V341H74.32ZM111.597 341.576C109.357 341.576 107.421 341.032 105.789 339.944C104.157 338.856 102.893 337.32 101.997 335.336C101.133 333.352 100.701 331 100.701 328.28C100.701 325.56 101.133 323.208 101.997 321.224C102.893 319.24 104.157 317.704 105.789 316.616C107.421 315.528 109.357 314.984 111.597 314.984C113.389 314.984 114.957 315.416 116.301 316.28C117.645 317.112 118.621 318.056 119.229 319.112V306.92H123.261V341H119.613L119.469 337.16C118.765 338.536 117.725 339.624 116.349 340.424C114.973 341.192 113.389 341.576 111.597 341.576ZM111.837 337.736C113.373 337.736 114.685 337.352 115.773 336.584C116.893 335.816 117.741 334.728 118.317 333.32C118.925 331.88 119.229 330.2 119.229 328.28C119.229 326.296 118.925 324.6 118.317 323.192C117.741 321.784 116.893 320.712 115.773 319.976C114.653 319.208 113.309 318.824 111.741 318.824C109.661 318.824 107.997 319.672 106.749 321.368C105.533 323.032 104.925 325.336 104.925 328.28C104.925 331.192 105.533 333.496 106.749 335.192C107.997 336.888 109.693 337.736 111.837 337.736ZM140.187 341.576C137.659 341.576 135.643 340.728 134.139 339.032C132.635 337.304 131.883 334.936 131.883 331.928V315.56H135.915V330.824C135.915 333.288 136.347 335.112 137.211 336.296C138.107 337.448 139.467 338.024 141.291 338.024C143.275 338.024 144.843 337.384 145.995 336.104C147.147 334.792 147.723 333 147.723 330.728V315.56H151.755V341H147.915V334.712L148.539 335.048C148.027 337.128 147.051 338.744 145.611 339.896C144.171 341.016 142.363 341.576 140.187 341.576ZM171.416 341.576C169.048 341.576 166.984 341.032 165.224 339.944C163.464 338.856 162.104 337.32 161.144 335.336C160.184 333.32 159.704 330.968 159.704 328.28C159.704 325.592 160.184 323.256 161.144 321.272C162.104 319.288 163.464 317.752 165.224 316.664C166.984 315.544 169.048 314.984 171.416 314.984C173.304 314.984 174.984 315.336 176.456 316.04C177.928 316.712 179.144 317.704 180.104 319.016C181.064 320.328 181.72 321.928 182.072 323.816L177.848 324.104C177.464 322.408 176.696 321.112 175.544 320.216C174.424 319.288 173.048 318.824 171.416 318.824C169.08 318.824 167.24 319.672 165.896 321.368C164.584 323.032 163.928 325.336 163.928 328.28C163.928 331.224 164.584 333.544 165.896 335.24C167.24 336.904 169.08 337.736 171.416 337.736C173.048 337.736 174.456 337.256 175.64 336.296C176.856 335.336 177.656 333.896 178.04 331.976L182.264 332.264C181.912 334.152 181.24 335.8 180.248 337.208C179.256 338.584 178.008 339.656 176.504 340.424C175 341.192 173.304 341.576 171.416 341.576ZM196.165 341.576C194.565 341.576 193.125 341.288 191.845 340.712C190.565 340.136 189.557 339.336 188.821 338.312C188.085 337.256 187.717 336.04 187.717 334.664C187.717 332.488 188.357 330.808 189.637 329.624C190.949 328.408 192.997 327.528 195.781 326.984L204.325 325.256C204.325 323.08 203.829 321.464 202.837 320.408C201.877 319.352 200.485 318.824 198.661 318.824C196.901 318.824 195.525 319.224 194.533 320.024C193.541 320.792 192.853 321.912 192.469 323.384L188.197 323.048C188.677 320.648 189.813 318.712 191.605 317.24C193.429 315.736 195.781 314.984 198.661 314.984C201.733 314.984 204.117 315.912 205.813 317.768C207.509 319.592 208.357 322.12 208.357 325.352V335.912C208.357 336.488 208.485 336.888 208.741 337.112C208.997 337.336 209.381 337.448 209.893 337.448H211.525V341C211.333 341.032 211.029 341.048 210.613 341.048C210.197 341.08 209.797 341.096 209.413 341.096C208.325 341.096 207.397 340.92 206.629 340.568C205.893 340.216 205.333 339.656 204.949 338.888C204.565 338.088 204.357 337.064 204.325 335.816H205.093C204.869 336.904 204.325 337.896 203.461 338.792C202.629 339.656 201.573 340.344 200.293 340.856C199.013 341.336 197.637 341.576 196.165 341.576ZM196.549 338.024C198.277 338.024 199.717 337.736 200.869 337.16C202.021 336.552 202.885 335.72 203.461 334.664C204.037 333.576 204.325 332.328 204.325 330.92V328.712L196.549 330.248C194.821 330.568 193.621 331.064 192.949 331.736C192.277 332.376 191.941 333.224 191.941 334.28C191.941 335.464 192.341 336.392 193.141 337.064C193.973 337.704 195.109 338.024 196.549 338.024ZM232.05 341C229.586 341 227.746 340.424 226.53 339.272C225.314 338.12 224.706 336.36 224.706 333.992V309.608H228.738V333.992C228.738 335.176 229.01 336.056 229.554 336.632C230.098 337.176 230.93 337.448 232.05 337.448H238.866V341H232.05ZM216.306 319.112V315.56H238.866V319.112H216.306ZM256.752 341V315.56H260.784V341H256.752ZM246.528 341V337.448H269.568V341H246.528ZM247.008 319.112V315.56H260.784V319.112H247.008ZM256.368 311.576V306.872H260.592V311.576H256.368ZM285.869 341.576C283.533 341.576 281.485 341.032 279.725 339.944C277.997 338.856 276.653 337.32 275.693 335.336C274.733 333.32 274.253 330.968 274.253 328.28C274.253 325.56 274.733 323.208 275.693 321.224C276.653 319.24 277.997 317.704 279.725 316.616C281.485 315.528 283.533 314.984 285.869 314.984C288.205 314.984 290.237 315.528 291.965 316.616C293.725 317.704 295.085 319.24 296.045 321.224C297.005 323.208 297.485 325.56 297.485 328.28C297.485 330.968 297.005 333.32 296.045 335.336C295.085 337.32 293.725 338.856 291.965 339.944C290.237 341.032 288.205 341.576 285.869 341.576ZM285.869 337.736C288.205 337.736 290.013 336.904 291.293 335.24C292.605 333.544 293.261 331.224 293.261 328.28C293.261 325.336 292.605 323.032 291.293 321.368C290.013 319.672 288.205 318.824 285.869 318.824C283.533 318.824 281.709 319.672 280.397 321.368C279.117 323.032 278.477 325.336 278.477 328.28C278.477 331.224 279.117 333.544 280.397 335.24C281.709 336.904 283.533 337.736 285.869 337.736ZM304.282 341V315.56H307.978L308.122 322.04L307.642 321.608C307.962 320.104 308.538 318.872 309.37 317.912C310.234 316.92 311.258 316.184 312.442 315.704C313.626 315.224 314.874 314.984 316.186 314.984C318.138 314.984 319.754 315.416 321.034 316.28C322.346 317.144 323.338 318.312 324.01 319.784C324.682 321.224 325.018 322.84 325.018 324.632V341H320.986V325.784C320.986 323.416 320.522 321.624 319.594 320.408C318.666 319.16 317.242 318.536 315.322 318.536C314.01 318.536 312.826 318.824 311.77 319.4C310.714 319.944 309.866 320.76 309.226 321.848C308.618 322.904 308.314 324.216 308.314 325.784V341H304.282Z" fill="black"/>
</svg>
