<svg width="400" height="400" viewBox="0 0 400 400" fill="none" xmlns="http://www.w3.org/2000/svg">
<rect width="400" height="400" rx="16" fill="#F9F9FF"/>
<path opacity="0.6" d="M197.281 39.3333H170.053C162.833 39.3333 155.908 42.2015 150.803 47.3069C145.697 52.4123 142.829 59.3368 142.829 66.5569C142.829 73.7771 145.697 80.7015 150.803 85.8069C155.908 90.9123 162.833 93.7805 170.053 93.7805H197.281V39.3333Z" fill="black"/>
<path opacity="0.4" d="M197.281 93.7805H170.053C162.834 93.7805 155.91 96.6483 150.806 101.753C145.701 106.858 142.833 113.781 142.833 121C142.833 128.219 145.701 135.142 150.806 140.247C155.91 145.352 162.834 148.219 170.053 148.219H197.281V93.7805Z" fill="black"/>
<path d="M251.72 121C251.72 128.22 248.851 135.145 243.746 140.25C238.64 145.355 231.716 148.224 224.496 148.224C217.276 148.224 210.351 145.355 205.246 140.25C200.141 135.145 197.272 128.22 197.272 121C197.272 113.78 200.141 106.855 205.246 101.75C210.351 96.6446 217.276 93.7764 224.496 93.7764C231.716 93.7764 238.64 96.6446 243.746 101.75C248.851 106.855 251.72 113.78 251.72 121Z" fill="black"/>
<path opacity="0.2" d="M170.053 148.228H197.281V175.447C197.279 180.83 195.681 186.091 192.69 190.566C189.698 195.041 185.447 198.529 180.474 200.588C175.5 202.647 170.028 203.186 164.749 202.135C159.469 201.085 154.62 198.492 150.814 194.686C147.008 190.88 144.415 186.031 143.365 180.751C142.314 175.472 142.853 170 144.912 165.026C146.971 160.053 150.459 155.802 154.934 152.81C159.409 149.819 164.67 148.229 170.053 148.228Z" fill="black"/>
<path opacity="0.8" d="M197.272 39.3333H224.492C231.712 39.3333 238.636 42.2015 243.742 47.3069C248.847 52.4123 251.715 59.3368 251.715 66.5569C251.715 73.7771 248.847 80.7015 243.742 85.8069C238.636 90.9123 231.712 93.7805 224.492 93.7805H197.272V39.3333Z" fill="black"/>
<path d="M132.8 310V275.92H153.92V279.856H134.816L136.928 277.84V293.488L134.816 291.376H153.056V295.312H134.816L136.928 293.2V310H132.8ZM170.845 310V284.56H174.877V310H170.845ZM160.621 310V306.448H183.661V310H160.621ZM161.101 288.112V284.56H174.877V288.112H161.101ZM170.461 280.576V275.872H174.685V280.576H170.461ZM199.819 317.776C197.995 317.776 196.347 317.472 194.875 316.864C193.403 316.256 192.171 315.392 191.179 314.272C190.187 313.152 189.515 311.856 189.163 310.384L193.387 310.096C193.771 311.28 194.443 312.208 195.403 312.88C196.395 313.584 197.867 313.936 199.819 313.936C202.123 313.936 203.883 313.472 205.099 312.544C206.347 311.616 206.971 310.224 206.971 308.368V304.24C206.363 305.584 205.387 306.656 204.043 307.456C202.699 308.256 201.195 308.656 199.531 308.656C197.387 308.656 195.467 308.128 193.771 307.072C192.107 306.016 190.795 304.56 189.835 302.704C188.907 300.848 188.443 298.72 188.443 296.32C188.443 293.888 188.907 291.76 189.835 289.936C190.763 288.08 192.043 286.624 193.675 285.568C195.339 284.512 197.227 283.984 199.339 283.984C201.131 283.984 202.731 284.4 204.139 285.232C205.579 286.064 206.587 287.184 207.163 288.592V284.56H211.003V308.272C211.003 310.256 210.555 311.952 209.659 313.36C208.763 314.8 207.483 315.888 205.819 316.624C204.155 317.392 202.155 317.776 199.819 317.776ZM199.723 304.816C201.899 304.816 203.643 304.064 204.955 302.56C206.267 301.024 206.939 298.944 206.971 296.32C207.003 294.56 206.715 293.056 206.107 291.808C205.531 290.528 204.683 289.552 203.563 288.88C202.475 288.176 201.195 287.824 199.723 287.824C197.483 287.824 195.739 288.592 194.491 290.128C193.275 291.632 192.667 293.696 192.667 296.32C192.667 298.944 193.291 301.024 194.539 302.56C195.819 304.064 197.547 304.816 199.723 304.816ZM216.264 310V284.56H219.96L220.104 290.224L219.624 290.128C219.912 288.24 220.52 286.752 221.448 285.664C222.408 284.544 223.624 283.984 225.096 283.984C226.6 283.984 227.752 284.528 228.552 285.616C229.384 286.704 229.896 288.304 230.088 290.416H229.608C229.896 288.432 230.536 286.864 231.528 285.712C232.552 284.56 233.832 283.984 235.368 283.984C237.416 283.984 238.904 284.688 239.832 286.096C240.76 287.504 241.224 289.84 241.224 293.104V310H237.192V293.68C237.192 291.408 236.952 289.824 236.472 288.928C235.992 288 235.24 287.536 234.216 287.536C233.544 287.536 232.952 287.76 232.44 288.208C231.928 288.624 231.512 289.296 231.192 290.224C230.904 291.152 230.76 292.336 230.76 293.776V310H226.728V293.68C226.728 291.504 226.488 289.936 226.008 288.976C225.56 288.016 224.808 287.536 223.752 287.536C223.08 287.536 222.488 287.76 221.976 288.208C221.464 288.624 221.048 289.296 220.728 290.224C220.44 291.152 220.296 292.336 220.296 293.776V310H216.264ZM254.165 310.576C252.565 310.576 251.125 310.288 249.845 309.712C248.565 309.136 247.557 308.336 246.821 307.312C246.085 306.256 245.717 305.04 245.717 303.664C245.717 301.488 246.357 299.808 247.637 298.624C248.949 297.408 250.997 296.528 253.781 295.984L262.325 294.256C262.325 292.08 261.829 290.464 260.837 289.408C259.877 288.352 258.485 287.824 256.661 287.824C254.901 287.824 253.525 288.224 252.533 289.024C251.541 289.792 250.853 290.912 250.469 292.384L246.197 292.048C246.677 289.648 247.813 287.712 249.605 286.24C251.429 284.736 253.781 283.984 256.661 283.984C259.733 283.984 262.117 284.912 263.813 286.768C265.509 288.592 266.357 291.12 266.357 294.352V304.912C266.357 305.488 266.485 305.888 266.741 306.112C266.997 306.336 267.381 306.448 267.893 306.448H269.525V310C269.333 310.032 269.029 310.048 268.613 310.048C268.197 310.08 267.797 310.096 267.413 310.096C266.325 310.096 265.397 309.92 264.629 309.568C263.893 309.216 263.333 308.656 262.949 307.888C262.565 307.088 262.357 306.064 262.325 304.816H263.093C262.869 305.904 262.325 306.896 261.461 307.792C260.629 308.656 259.573 309.344 258.293 309.856C257.013 310.336 255.637 310.576 254.165 310.576ZM254.549 307.024C256.277 307.024 257.717 306.736 258.869 306.16C260.021 305.552 260.885 304.72 261.461 303.664C262.037 302.576 262.325 301.328 262.325 299.92V297.712L254.549 299.248C252.821 299.568 251.621 300.064 250.949 300.736C250.277 301.376 249.941 302.224 249.941 303.28C249.941 304.464 250.341 305.392 251.141 306.064C251.973 306.704 253.109 307.024 254.549 307.024Z" fill="black"/>
</svg>
