<svg width="400" height="400" viewBox="0 0 400 400" fill="none" xmlns="http://www.w3.org/2000/svg">
<rect width="400" height="400" rx="16" fill="#B9596A"/>
<path d="M151.016 51L102 136.033L151.016 221H248.984L298 136.033L248.984 51H151.016ZM164.026 84.411H196.26C225.701 84.411 247.514 98.2777 247.514 136.033C247.514 172.323 221.299 187.589 194.79 187.589H164.026V84.411ZM184.581 104.446V167.554H194.716C216.325 167.554 226.256 154.873 226.256 135.967C226.329 114.95 217.305 104.446 195.492 104.446H184.581Z" fill="white"/>
<path d="M72.88 312V277.92H77.008V294.48L74.896 292.848H93.904L91.792 294.48V277.92H95.92V312H91.792V295.248L93.904 296.88H74.896L77.008 295.248V312H72.88ZM109.821 312.576C108.221 312.576 106.781 312.288 105.501 311.712C104.221 311.136 103.213 310.336 102.477 309.312C101.741 308.256 101.373 307.04 101.373 305.664C101.373 303.488 102.013 301.808 103.293 300.624C104.605 299.408 106.653 298.528 109.437 297.984L117.981 296.256C117.981 294.08 117.485 292.464 116.493 291.408C115.533 290.352 114.141 289.824 112.317 289.824C110.557 289.824 109.181 290.224 108.189 291.024C107.197 291.792 106.509 292.912 106.125 294.384L101.853 294.048C102.333 291.648 103.469 289.712 105.261 288.24C107.085 286.736 109.437 285.984 112.317 285.984C115.389 285.984 117.773 286.912 119.469 288.768C121.165 290.592 122.013 293.12 122.013 296.352V306.912C122.013 307.488 122.141 307.888 122.397 308.112C122.653 308.336 123.037 308.448 123.549 308.448H125.181V312C124.989 312.032 124.685 312.048 124.269 312.048C123.853 312.08 123.453 312.096 123.069 312.096C121.981 312.096 121.053 311.92 120.285 311.568C119.549 311.216 118.989 310.656 118.605 309.888C118.221 309.088 118.013 308.064 117.981 306.816H118.749C118.525 307.904 117.981 308.896 117.117 309.792C116.285 310.656 115.229 311.344 113.949 311.856C112.669 312.336 111.293 312.576 109.821 312.576ZM110.205 309.024C111.933 309.024 113.373 308.736 114.525 308.16C115.677 307.552 116.541 306.72 117.117 305.664C117.693 304.576 117.981 303.328 117.981 301.92V299.712L110.205 301.248C108.477 301.568 107.277 302.064 106.605 302.736C105.933 303.376 105.597 304.224 105.597 305.28C105.597 306.464 105.997 307.392 106.797 308.064C107.629 308.704 108.765 309.024 110.205 309.024ZM142.635 312.576C140.267 312.576 138.203 312.032 136.443 310.944C134.683 309.856 133.323 308.32 132.363 306.336C131.403 304.32 130.923 301.968 130.923 299.28C130.923 296.592 131.403 294.256 132.363 292.272C133.323 290.288 134.683 288.752 136.443 287.664C138.203 286.544 140.267 285.984 142.635 285.984C144.523 285.984 146.203 286.336 147.675 287.04C149.147 287.712 150.363 288.704 151.323 290.016C152.283 291.328 152.939 292.928 153.291 294.816L149.067 295.104C148.683 293.408 147.915 292.112 146.763 291.216C145.643 290.288 144.267 289.824 142.635 289.824C140.299 289.824 138.459 290.672 137.115 292.368C135.803 294.032 135.147 296.336 135.147 299.28C135.147 302.224 135.803 304.544 137.115 306.24C138.459 307.904 140.299 308.736 142.635 308.736C144.267 308.736 145.675 308.256 146.859 307.296C148.075 306.336 148.875 304.896 149.259 302.976L153.483 303.264C153.131 305.152 152.459 306.8 151.467 308.208C150.475 309.584 149.227 310.656 147.723 311.424C146.219 312.192 144.523 312.576 142.635 312.576ZM160.664 312V277.92H164.696V300.24L177.08 286.56H182.456L172.424 297.36L182.936 312H178.04L169.688 300.096L164.696 305.376V312H160.664ZM196.165 312.576C194.565 312.576 193.125 312.288 191.845 311.712C190.565 311.136 189.557 310.336 188.821 309.312C188.085 308.256 187.717 307.04 187.717 305.664C187.717 303.488 188.357 301.808 189.637 300.624C190.949 299.408 192.997 298.528 195.781 297.984L204.325 296.256C204.325 294.08 203.829 292.464 202.837 291.408C201.877 290.352 200.485 289.824 198.661 289.824C196.901 289.824 195.525 290.224 194.533 291.024C193.541 291.792 192.853 292.912 192.469 294.384L188.197 294.048C188.677 291.648 189.813 289.712 191.605 288.24C193.429 286.736 195.781 285.984 198.661 285.984C201.733 285.984 204.117 286.912 205.813 288.768C207.509 290.592 208.357 293.12 208.357 296.352V306.912C208.357 307.488 208.485 307.888 208.741 308.112C208.997 308.336 209.381 308.448 209.893 308.448H211.525V312C211.333 312.032 211.029 312.048 210.613 312.048C210.197 312.08 209.797 312.096 209.413 312.096C208.325 312.096 207.397 311.92 206.629 311.568C205.893 311.216 205.333 310.656 204.949 309.888C204.565 309.088 204.357 308.064 204.325 306.816H205.093C204.869 307.904 204.325 308.896 203.461 309.792C202.629 310.656 201.573 311.344 200.293 311.856C199.013 312.336 197.637 312.576 196.165 312.576ZM196.549 309.024C198.277 309.024 199.717 308.736 200.869 308.16C202.021 307.552 202.885 306.72 203.461 305.664C204.037 304.576 204.325 303.328 204.325 301.92V299.712L196.549 301.248C194.821 301.568 193.621 302.064 192.949 302.736C192.277 303.376 191.941 304.224 191.941 305.28C191.941 306.464 192.341 307.392 193.141 308.064C193.973 308.704 195.109 309.024 196.549 309.024ZM232.05 312C229.586 312 227.746 311.424 226.53 310.272C225.314 309.12 224.706 307.36 224.706 304.992V280.608H228.738V304.992C228.738 306.176 229.01 307.056 229.554 307.632C230.098 308.176 230.93 308.448 232.05 308.448H238.866V312H232.05ZM216.306 290.112V286.56H238.866V290.112H216.306ZM247.488 312V277.92H251.52V292.176L251.04 292.08C251.36 290.672 251.904 289.52 252.672 288.624C253.44 287.728 254.384 287.072 255.504 286.656C256.624 286.208 257.84 285.984 259.152 285.984C260.976 285.984 262.512 286.4 263.76 287.232C265.04 288.032 266 289.168 266.64 290.64C267.312 292.08 267.648 293.744 267.648 295.632V312H263.616V296.784C263.616 294.32 263.168 292.496 262.272 291.312C261.408 290.128 260.08 289.536 258.288 289.536C256.24 289.536 254.592 290.16 253.344 291.408C252.128 292.656 251.52 294.464 251.52 296.832V312H247.488ZM285.869 312.576C283.533 312.576 281.485 312.032 279.725 310.944C277.997 309.856 276.653 308.32 275.693 306.336C274.733 304.32 274.253 301.968 274.253 299.28C274.253 296.56 274.733 294.208 275.693 292.224C276.653 290.24 277.997 288.704 279.725 287.616C281.485 286.528 283.533 285.984 285.869 285.984C288.205 285.984 290.237 286.528 291.965 287.616C293.725 288.704 295.085 290.24 296.045 292.224C297.005 294.208 297.485 296.56 297.485 299.28C297.485 301.968 297.005 304.32 296.045 306.336C295.085 308.32 293.725 309.856 291.965 310.944C290.237 312.032 288.205 312.576 285.869 312.576ZM285.869 308.736C288.205 308.736 290.013 307.904 291.293 306.24C292.605 304.544 293.261 302.224 293.261 299.28C293.261 296.336 292.605 294.032 291.293 292.368C290.013 290.672 288.205 289.824 285.869 289.824C283.533 289.824 281.709 290.672 280.397 292.368C279.117 294.032 278.477 296.336 278.477 299.28C278.477 302.224 279.117 304.544 280.397 306.24C281.709 307.904 283.533 308.736 285.869 308.736ZM304.282 312V286.56H307.978L308.122 293.04L307.642 292.608C307.962 291.104 308.538 289.872 309.37 288.912C310.234 287.92 311.258 287.184 312.442 286.704C313.626 286.224 314.874 285.984 316.186 285.984C318.138 285.984 319.754 286.416 321.034 287.28C322.346 288.144 323.338 289.312 324.01 290.784C324.682 292.224 325.018 293.84 325.018 295.632V312H320.986V296.784C320.986 294.416 320.522 292.624 319.594 291.408C318.666 290.16 317.242 289.536 315.322 289.536C314.01 289.536 312.826 289.824 311.77 290.4C310.714 290.944 309.866 291.76 309.226 292.848C308.618 293.904 308.314 295.216 308.314 296.784V312H304.282Z" fill="white"/>
</svg>
