<svg width="400" height="400" viewBox="0 0 400 400" fill="none" xmlns="http://www.w3.org/2000/svg">
<rect width="400" height="400" rx="16" fill="#F9F9FF"/>
<path d="M151.016 67L102 152.033L151.016 237H248.984L298 152.033L248.984 67H151.016ZM164.026 100.411H196.26C225.701 100.411 247.514 114.278 247.514 152.033C247.514 188.323 221.299 203.589 194.79 203.589H164.026V100.411ZM184.581 120.446V183.554H194.716C216.325 183.554 226.256 170.873 226.256 151.967C226.329 130.95 217.305 120.446 195.492 120.446H184.581Z" fill="black"/>
<path d="M72.88 328V293.92H77.008V310.48L74.896 308.848H93.904L91.792 310.48V293.92H95.92V328H91.792V311.248L93.904 312.88H74.896L77.008 311.248V328H72.88ZM109.821 328.576C108.221 328.576 106.781 328.288 105.501 327.712C104.221 327.136 103.213 326.336 102.477 325.312C101.741 324.256 101.373 323.04 101.373 321.664C101.373 319.488 102.013 317.808 103.293 316.624C104.605 315.408 106.653 314.528 109.437 313.984L117.981 312.256C117.981 310.08 117.485 308.464 116.493 307.408C115.533 306.352 114.141 305.824 112.317 305.824C110.557 305.824 109.181 306.224 108.189 307.024C107.197 307.792 106.509 308.912 106.125 310.384L101.853 310.048C102.333 307.648 103.469 305.712 105.261 304.24C107.085 302.736 109.437 301.984 112.317 301.984C115.389 301.984 117.773 302.912 119.469 304.768C121.165 306.592 122.013 309.12 122.013 312.352V322.912C122.013 323.488 122.141 323.888 122.397 324.112C122.653 324.336 123.037 324.448 123.549 324.448H125.181V328C124.989 328.032 124.685 328.048 124.269 328.048C123.853 328.08 123.453 328.096 123.069 328.096C121.981 328.096 121.053 327.92 120.285 327.568C119.549 327.216 118.989 326.656 118.605 325.888C118.221 325.088 118.013 324.064 117.981 322.816H118.749C118.525 323.904 117.981 324.896 117.117 325.792C116.285 326.656 115.229 327.344 113.949 327.856C112.669 328.336 111.293 328.576 109.821 328.576ZM110.205 325.024C111.933 325.024 113.373 324.736 114.525 324.16C115.677 323.552 116.541 322.72 117.117 321.664C117.693 320.576 117.981 319.328 117.981 317.92V315.712L110.205 317.248C108.477 317.568 107.277 318.064 106.605 318.736C105.933 319.376 105.597 320.224 105.597 321.28C105.597 322.464 105.997 323.392 106.797 324.064C107.629 324.704 108.765 325.024 110.205 325.024ZM142.635 328.576C140.267 328.576 138.203 328.032 136.443 326.944C134.683 325.856 133.323 324.32 132.363 322.336C131.403 320.32 130.923 317.968 130.923 315.28C130.923 312.592 131.403 310.256 132.363 308.272C133.323 306.288 134.683 304.752 136.443 303.664C138.203 302.544 140.267 301.984 142.635 301.984C144.523 301.984 146.203 302.336 147.675 303.04C149.147 303.712 150.363 304.704 151.323 306.016C152.283 307.328 152.939 308.928 153.291 310.816L149.067 311.104C148.683 309.408 147.915 308.112 146.763 307.216C145.643 306.288 144.267 305.824 142.635 305.824C140.299 305.824 138.459 306.672 137.115 308.368C135.803 310.032 135.147 312.336 135.147 315.28C135.147 318.224 135.803 320.544 137.115 322.24C138.459 323.904 140.299 324.736 142.635 324.736C144.267 324.736 145.675 324.256 146.859 323.296C148.075 322.336 148.875 320.896 149.259 318.976L153.483 319.264C153.131 321.152 152.459 322.8 151.467 324.208C150.475 325.584 149.227 326.656 147.723 327.424C146.219 328.192 144.523 328.576 142.635 328.576ZM160.664 328V293.92H164.696V316.24L177.08 302.56H182.456L172.424 313.36L182.936 328H178.04L169.688 316.096L164.696 321.376V328H160.664ZM196.165 328.576C194.565 328.576 193.125 328.288 191.845 327.712C190.565 327.136 189.557 326.336 188.821 325.312C188.085 324.256 187.717 323.04 187.717 321.664C187.717 319.488 188.357 317.808 189.637 316.624C190.949 315.408 192.997 314.528 195.781 313.984L204.325 312.256C204.325 310.08 203.829 308.464 202.837 307.408C201.877 306.352 200.485 305.824 198.661 305.824C196.901 305.824 195.525 306.224 194.533 307.024C193.541 307.792 192.853 308.912 192.469 310.384L188.197 310.048C188.677 307.648 189.813 305.712 191.605 304.24C193.429 302.736 195.781 301.984 198.661 301.984C201.733 301.984 204.117 302.912 205.813 304.768C207.509 306.592 208.357 309.12 208.357 312.352V322.912C208.357 323.488 208.485 323.888 208.741 324.112C208.997 324.336 209.381 324.448 209.893 324.448H211.525V328C211.333 328.032 211.029 328.048 210.613 328.048C210.197 328.08 209.797 328.096 209.413 328.096C208.325 328.096 207.397 327.92 206.629 327.568C205.893 327.216 205.333 326.656 204.949 325.888C204.565 325.088 204.357 324.064 204.325 322.816H205.093C204.869 323.904 204.325 324.896 203.461 325.792C202.629 326.656 201.573 327.344 200.293 327.856C199.013 328.336 197.637 328.576 196.165 328.576ZM196.549 325.024C198.277 325.024 199.717 324.736 200.869 324.16C202.021 323.552 202.885 322.72 203.461 321.664C204.037 320.576 204.325 319.328 204.325 317.92V315.712L196.549 317.248C194.821 317.568 193.621 318.064 192.949 318.736C192.277 319.376 191.941 320.224 191.941 321.28C191.941 322.464 192.341 323.392 193.141 324.064C193.973 324.704 195.109 325.024 196.549 325.024ZM232.05 328C229.586 328 227.746 327.424 226.53 326.272C225.314 325.12 224.706 323.36 224.706 320.992V296.608H228.738V320.992C228.738 322.176 229.01 323.056 229.554 323.632C230.098 324.176 230.93 324.448 232.05 324.448H238.866V328H232.05ZM216.306 306.112V302.56H238.866V306.112H216.306ZM247.488 328V293.92H251.52V308.176L251.04 308.08C251.36 306.672 251.904 305.52 252.672 304.624C253.44 303.728 254.384 303.072 255.504 302.656C256.624 302.208 257.84 301.984 259.152 301.984C260.976 301.984 262.512 302.4 263.76 303.232C265.04 304.032 266 305.168 266.64 306.64C267.312 308.08 267.648 309.744 267.648 311.632V328H263.616V312.784C263.616 310.32 263.168 308.496 262.272 307.312C261.408 306.128 260.08 305.536 258.288 305.536C256.24 305.536 254.592 306.16 253.344 307.408C252.128 308.656 251.52 310.464 251.52 312.832V328H247.488ZM285.869 328.576C283.533 328.576 281.485 328.032 279.725 326.944C277.997 325.856 276.653 324.32 275.693 322.336C274.733 320.32 274.253 317.968 274.253 315.28C274.253 312.56 274.733 310.208 275.693 308.224C276.653 306.24 277.997 304.704 279.725 303.616C281.485 302.528 283.533 301.984 285.869 301.984C288.205 301.984 290.237 302.528 291.965 303.616C293.725 304.704 295.085 306.24 296.045 308.224C297.005 310.208 297.485 312.56 297.485 315.28C297.485 317.968 297.005 320.32 296.045 322.336C295.085 324.32 293.725 325.856 291.965 326.944C290.237 328.032 288.205 328.576 285.869 328.576ZM285.869 324.736C288.205 324.736 290.013 323.904 291.293 322.24C292.605 320.544 293.261 318.224 293.261 315.28C293.261 312.336 292.605 310.032 291.293 308.368C290.013 306.672 288.205 305.824 285.869 305.824C283.533 305.824 281.709 306.672 280.397 308.368C279.117 310.032 278.477 312.336 278.477 315.28C278.477 318.224 279.117 320.544 280.397 322.24C281.709 323.904 283.533 324.736 285.869 324.736ZM304.282 328V302.56H307.978L308.122 309.04L307.642 308.608C307.962 307.104 308.538 305.872 309.37 304.912C310.234 303.92 311.258 303.184 312.442 302.704C313.626 302.224 314.874 301.984 316.186 301.984C318.138 301.984 319.754 302.416 321.034 303.28C322.346 304.144 323.338 305.312 324.01 306.784C324.682 308.224 325.018 309.84 325.018 311.632V328H320.986V312.784C320.986 310.416 320.522 308.624 319.594 307.408C318.666 306.16 317.242 305.536 315.322 305.536C314.01 305.536 312.826 305.824 311.77 306.4C310.714 306.944 309.866 307.76 309.226 308.848C308.618 309.904 308.314 311.216 308.314 312.784V328H304.282Z" fill="black"/>
</svg>
