<svg width="400" height="400" viewBox="0 0 400 400" fill="none" xmlns="http://www.w3.org/2000/svg">
<rect width="400" height="400" rx="16" fill="#3A7BE5"/>
<path fill-rule="evenodd" clip-rule="evenodd" d="M173.601 128.689C177.752 125.401 182.491 122.934 187.566 121.421C192.647 119.763 198.029 119.234 203.336 119.869C203.685 119.953 204.048 119.963 204.402 119.9C204.755 119.836 205.092 119.701 205.391 119.502C205.69 119.302 205.945 119.044 206.139 118.742C206.333 118.44 206.463 118.101 206.521 117.746C206.604 117.386 206.612 117.013 206.544 116.649C206.477 116.286 206.335 115.94 206.128 115.634C205.922 115.327 205.654 115.067 205.342 114.868C205.03 114.67 204.681 114.537 204.316 114.479C198.229 113.214 191.946 113.214 185.859 114.479C179.693 115.701 173.797 118.025 168.456 121.339C166.229 122.484 164.27 124.087 162.707 126.044C161.145 128 160.014 130.266 159.391 132.691C159.172 134.637 159.405 136.607 160.07 138.448C160.736 140.289 161.817 141.952 163.23 143.308C165.031 145.323 167.215 146.961 169.654 148.126C172.093 149.291 174.74 149.96 177.44 150.094C182.729 150.194 187.999 149.421 193.038 147.808C196.921 146.461 201.028 145.879 205.133 146.093C211.829 147.154 218.934 151.319 225.958 152.708C229.611 153.561 233.428 153.391 236.991 152.218C237.382 152.1 237.747 151.906 238.063 151.647C238.38 151.388 238.642 151.07 238.836 150.709C239.029 150.349 239.149 149.954 239.19 149.548C239.231 149.141 239.191 148.73 239.073 148.338C238.955 147.947 238.761 147.583 238.503 147.266C238.244 146.95 237.925 146.687 237.565 146.494C237.205 146.3 236.81 146.18 236.403 146.139C235.996 146.098 235.586 146.138 235.194 146.256C232.676 146.899 230.036 146.899 227.518 146.256C220.494 144.296 213.553 139.396 206.856 138.089C201.428 137.103 195.852 137.298 190.506 138.661C186.412 139.798 182.178 140.347 177.93 140.294C175.133 140.126 172.505 138.9 170.58 136.864C169.6 135.803 168.946 135.149 169.273 134.333C170.026 132.013 171.554 130.023 173.601 128.698" fill="white"/>
<path fill-rule="evenodd" clip-rule="evenodd" d="M268.939 117.665C260.2 113.99 252.597 109.498 244.022 105.333C238.367 102.454 232.46 100.1 226.374 98.3013C216.133 95.4656 205.386 94.9632 194.924 96.8313C196.422 91.1691 197.456 85.4252 198.028 79.5997C198.516 74.5006 198.296 69.3586 197.374 64.3198C195.333 54.5933 190.106 51 185.533 51C182.481 51.2847 179.548 52.3215 176.996 54.0174C174.443 55.7134 172.351 58.0157 170.906 60.7183L165.108 70.9267C161.068 79.9883 157.601 89.2949 154.728 98.7913H153.748C146.659 103.457 140.509 109.413 135.618 116.35C133.075 119.671 130.857 123.229 128.995 126.975C127.093 130.784 125.587 134.78 124.503 138.898C123.673 141.97 123.483 145.18 123.947 148.329C124.411 151.477 125.517 154.497 127.198 157.199C128.824 159.36 131.234 160.794 133.909 161.191C136.583 161.589 139.306 160.917 141.49 159.323C139.061 169.338 137.693 179.581 137.407 189.882C137.477 191.151 137.668 192.403 137.978 193.639C138.24 194.951 138.621 196.231 139.122 197.477C140.352 200.363 141.876 203.085 143.695 205.644C144.757 208.176 150.473 209.646 160.608 200.254C161.67 199.274 162.65 198.212 163.548 197.069C164.463 195.931 165.279 194.733 165.998 193.476C167.414 190.563 168.666 187.596 169.755 184.574C172.752 187.155 176.182 189.172 179.889 190.536C182.078 191.352 184.338 191.842 186.668 192.006C190.212 192.251 193.773 191.924 197.203 191.026C197.938 191.026 198.51 190.127 199.245 189.801C205.138 193.593 211.94 195.736 218.942 196.007C223.808 195.956 228.655 195.381 233.397 194.292C239.947 192.54 246.607 191.23 253.332 190.372C254.155 190.372 254.945 190.045 255.527 189.463C256.109 188.881 256.436 188.092 256.436 187.269C256.436 186.446 256.109 185.657 255.527 185.075C254.945 184.493 254.155 184.166 253.332 184.166C245.166 183.561 236.958 183.757 228.832 184.737L219.596 185.636H213.716C210.964 185.636 208.22 185.334 205.549 184.737C206.5 183.745 207.298 182.616 207.918 181.389C208.991 179.091 209.193 176.482 208.486 174.046C207.778 171.61 206.209 169.515 204.071 168.151H202.928C204.8 166.913 206.398 165.302 207.62 163.419C208.843 161.537 209.664 159.422 210.033 157.208C210.357 155.146 210.038 153.035 209.117 151.162C208.196 149.29 206.719 147.747 204.888 146.746C204.225 146.327 203.427 146.175 202.657 146.32C201.886 146.465 201.198 146.896 200.733 147.527C200.267 148.158 200.058 148.943 200.147 149.722C200.236 150.501 200.617 151.218 201.213 151.728C201.75 152.207 202.131 152.838 202.306 153.537C202.481 154.236 202.441 154.971 202.193 155.648C201.653 156.812 200.847 157.833 199.84 158.627C198.833 159.422 197.652 159.968 196.394 160.221C194.397 160.597 192.348 160.597 190.351 160.221L185.451 159.731C183.055 159.373 180.68 158.883 178.338 158.261V153.769C178.521 153.409 178.623 153.014 178.637 152.61C178.652 152.207 178.578 151.805 178.421 151.433C178.264 151.061 178.028 150.728 177.729 150.456C177.43 150.185 177.076 149.982 176.691 149.861C176.305 149.741 175.898 149.706 175.498 149.759C175.098 149.812 174.714 149.952 174.373 150.168C174.032 150.385 173.743 150.673 173.525 151.013C173.307 151.353 173.166 151.736 173.111 152.136C172.295 153.606 167.068 163.896 166.66 165.203C166.266 166.597 165.966 168.015 165.761 169.449C165.728 170.048 165.728 170.648 165.761 171.246C163.638 170.348 161.841 169.286 159.718 168.469C158.834 168.053 157.901 167.751 156.941 167.571C156.026 167.355 155.095 167.218 154.156 167.163C151.625 167.163 149.501 167.653 147.051 167.816H146.561C150.971 150.584 155.463 132.618 160.608 114.97C164.227 101.49 168.841 88.2976 174.41 75.5L178.991 66.1083C180.87 62.9233 182.83 60.3917 185.116 60.31C187.403 60.2283 188.138 62.515 189.118 66.3533C190.18 70.6234 190.62 75.0243 190.425 79.42C190.152 86.3726 189.227 93.2353 187.648 100.008C187.473 100.808 187.613 101.645 188.039 102.345C188.465 103.044 189.143 103.553 189.935 103.765C190.583 103.886 191.253 103.792 191.843 103.498C192.432 103.203 192.909 102.723 193.201 102.132C193.545 102.25 193.919 102.25 194.263 102.132C201.695 102.148 209.085 103.308 216.166 105.562C218.779 106.378 221.393 107.358 223.924 108.257C227.926 109.645 232.091 111.197 235.766 112.667C245.893 116.505 256.109 120.425 266.897 123.373C267.688 123.634 268.55 123.576 269.298 123.209C270.046 122.843 270.621 122.198 270.899 121.413C271.13 120.655 271.054 119.836 270.688 119.134C270.321 118.431 269.693 117.9 268.939 117.656M141.743 149.033C140.756 150.237 139.496 151.189 138.068 151.809C137.146 152.154 136.131 152.154 135.21 151.809C134.556 151.809 134.556 150.748 134.311 150.013C133.417 147.113 133.417 144.011 134.311 141.111C135.506 136.912 137.035 132.816 138.885 128.861C140.676 124.767 142.745 120.817 145.091 117.011C147.051 114.142 149.202 111.42 151.543 108.845C151.543 110.315 150.645 111.621 150.236 113.091C147.628 123.9 145.394 134.795 143.54 145.758C143.131 146.901 142.56 147.971 141.743 149.033ZM185.525 170.266C189.771 171.491 194.271 171.491 198.51 170.266C198.304 170.831 198.273 171.445 198.418 172.028C198.563 172.611 198.88 173.138 199.326 173.541C199.891 174.217 200.2 175.069 200.2 175.95C200.2 176.831 199.891 177.683 199.326 178.359C198.712 179.164 197.938 179.834 197.052 180.326C196.167 180.818 195.189 181.121 194.181 181.218C191.717 181.766 189.19 181.986 186.668 181.871C183.933 181.999 181.192 181.807 178.501 181.299C175.939 180.742 173.466 179.835 171.151 178.604C172.213 176.644 173.275 174.766 174.173 172.806C174.799 171.483 175.316 170.122 175.725 168.723C175.926 168.015 176.089 167.307 176.215 166.599C179.155 168.2 182.282 169.425 185.525 170.266ZM145.418 173.549C147.416 174.986 149.512 176.266 151.706 177.387C152.616 177.812 153.568 178.111 154.565 178.286C155.572 178.367 156.579 178.367 157.586 178.286C159.966 178.215 162.334 178.024 164.691 177.714V179.592C164.44 180.25 164.44 180.977 164.691 181.634C161.996 183.741 159.437 186 157.015 188.412C155.649 190.09 154.368 191.834 153.176 193.639C151.788 195.762 150.563 197.976 149.256 200.099C149.256 198.193 149.093 196.315 148.766 194.464C148.593 192.476 148.237 190.507 147.705 188.584C146.56 185.334 145.025 182.235 143.131 179.356C143.131 179.356 143.621 178.784 143.703 178.457C144.193 176.661 144.683 174.782 145.091 172.977C145.173 173.549 145.255 173.549 145.418 173.549Z" fill="#E6E6E6"/>
<path fill-rule="evenodd" clip-rule="evenodd" d="M176.378 225.987C167.203 222.406 157.189 221.555 147.541 223.537L137.905 225.987L127.525 227.457C125.38 227.539 123.256 227.376 121.155 226.967C119.189 226.556 117.292 225.869 115.52 224.926C112.172 223.211 109.885 221.169 109.477 218.637C109.313 217.064 109.575 215.476 110.236 214.039C110.897 212.603 111.932 211.37 113.233 210.471C116.344 207.802 119.952 205.776 123.85 204.509C127.943 203.221 132.219 202.614 136.508 202.712C137.158 202.605 137.748 202.271 138.175 201.769C138.601 201.268 138.835 200.631 138.835 199.972C138.835 199.314 138.601 198.677 138.175 198.175C137.748 197.673 137.158 197.339 136.508 197.232C131.678 196.706 126.794 196.982 122.053 198.049C117.064 199.146 112.344 201.229 108.17 204.174C105.543 205.772 103.397 208.05 101.959 210.767C100.52 213.483 99.8412 216.538 99.995 219.609C100.435 222.688 101.626 225.611 103.464 228.121C105.301 230.63 107.728 232.649 110.53 233.999C113.062 235.485 115.822 236.563 118.697 237.184C121.596 237.796 124.56 238.041 127.517 237.919C129.694 237.859 131.848 237.641 133.977 237.265C136.018 237.265 138.06 236.449 140.102 235.959L149.902 232.774C157.363 230.522 165.323 230.522 172.784 232.774C174.091 233.345 175.316 233.917 175.643 235.142C175.97 236.367 175.643 239.062 173.275 242.002C172.908 242.496 172.695 243.086 172.662 243.7C172.629 244.314 172.778 244.924 173.09 245.454C173.402 245.984 173.863 246.41 174.416 246.679C174.969 246.948 175.589 247.048 176.198 246.967C176.604 246.912 176.995 246.776 177.348 246.569C177.701 246.361 178.01 246.086 178.256 245.759C179.862 244.152 181.074 242.195 181.797 240.041C182.52 237.888 182.733 235.596 182.421 233.345C182.001 231.758 181.243 230.28 180.2 229.012C179.158 227.743 177.854 226.706 176.378 225.987Z" fill="#E6E6E6"/>
<path d="M74.32 338V303.92H84.688C87.056 303.92 89.12 304.336 90.88 305.168C92.64 306 94 307.2 94.96 308.768C95.92 310.304 96.4 312.16 96.4 314.336C96.4 316.512 95.92 318.384 94.96 319.952C94 321.488 92.64 322.672 90.88 323.504C89.12 324.336 87.056 324.752 84.688 324.752H78.448V338H74.32ZM78.448 320.72H84.208C86.896 320.72 88.88 320.176 90.16 319.088C91.44 317.968 92.08 316.384 92.08 314.336C92.08 312.256 91.44 310.672 90.16 309.584C88.88 308.496 86.896 307.952 84.208 307.952H78.448V320.72ZM113.613 338.576C111.213 338.576 109.133 338.032 107.373 336.944C105.645 335.856 104.301 334.32 103.341 332.336C102.413 330.32 101.949 327.968 101.949 325.28C101.949 322.592 102.413 320.256 103.341 318.272C104.301 316.288 105.629 314.752 107.325 313.664C109.053 312.544 111.085 311.984 113.421 311.984C115.629 311.984 117.581 312.512 119.277 313.568C120.973 314.592 122.301 316.096 123.261 318.08C124.221 320.064 124.701 322.48 124.701 325.328V326.528H106.173C106.333 329.248 107.053 331.296 108.333 332.672C109.645 334.048 111.405 334.736 113.613 334.736C115.277 334.736 116.637 334.352 117.693 333.584C118.781 332.784 119.533 331.744 119.949 330.464L124.269 330.8C123.597 333.072 122.317 334.944 120.429 336.416C118.573 337.856 116.301 338.576 113.613 338.576ZM106.173 322.976H120.285C120.093 320.512 119.373 318.704 118.125 317.552C116.877 316.4 115.309 315.824 113.421 315.824C111.469 315.824 109.853 316.432 108.573 317.648C107.325 318.832 106.525 320.608 106.173 322.976ZM138.507 338V312.56H141.867L142.251 318.992L141.867 318.896C142.187 316.72 142.875 315.12 143.931 314.096C145.019 313.072 146.459 312.56 148.251 312.56H153.483V316.208H148.299C147.051 316.208 145.995 316.464 145.131 316.976C144.299 317.456 143.659 318.176 143.211 319.136C142.763 320.064 142.539 321.232 142.539 322.64V338H138.507ZM131.883 338V334.448H150.603V338H131.883ZM131.883 316.112V312.56H140.715V316.112H131.883ZM171.224 338.576C169.016 338.576 167.112 338.192 165.512 337.424C163.912 336.656 162.648 335.632 161.72 334.352C160.824 333.04 160.312 331.584 160.184 329.984L164.408 329.696C164.664 331.264 165.352 332.496 166.472 333.392C167.624 334.288 169.208 334.736 171.224 334.736C173.112 334.736 174.568 334.464 175.592 333.92C176.648 333.376 177.176 332.528 177.176 331.376C177.176 330.64 177 330.032 176.648 329.552C176.296 329.072 175.64 328.672 174.68 328.352C173.72 328 172.312 327.664 170.456 327.344C167.992 326.896 166.056 326.352 164.648 325.712C163.272 325.04 162.296 324.208 161.72 323.216C161.144 322.224 160.856 321.04 160.856 319.664C160.856 318.192 161.224 316.88 161.96 315.728C162.696 314.576 163.784 313.664 165.224 312.992C166.664 312.32 168.424 311.984 170.504 311.984C172.616 311.984 174.376 312.368 175.784 313.136C177.224 313.872 178.36 314.864 179.192 316.112C180.024 317.328 180.568 318.672 180.824 320.144L176.6 320.432C176.408 319.536 176.04 318.752 175.496 318.08C174.984 317.376 174.296 316.832 173.432 316.448C172.6 316.032 171.608 315.824 170.456 315.824C168.6 315.824 167.224 316.192 166.328 316.928C165.432 317.664 164.984 318.576 164.984 319.664C164.984 320.528 165.192 321.216 165.608 321.728C166.024 322.24 166.696 322.656 167.624 322.976C168.552 323.264 169.784 323.536 171.32 323.792C173.944 324.208 175.976 324.752 177.416 325.424C178.856 326.064 179.864 326.864 180.44 327.824C181.016 328.784 181.304 329.968 181.304 331.376C181.304 332.88 180.856 334.176 179.96 335.264C179.096 336.32 177.896 337.136 176.36 337.712C174.856 338.288 173.144 338.576 171.224 338.576ZM199.525 338.576C197.189 338.576 195.141 338.032 193.381 336.944C191.653 335.856 190.309 334.32 189.349 332.336C188.389 330.32 187.909 327.968 187.909 325.28C187.909 322.56 188.389 320.208 189.349 318.224C190.309 316.24 191.653 314.704 193.381 313.616C195.141 312.528 197.189 311.984 199.525 311.984C201.861 311.984 203.893 312.528 205.621 313.616C207.381 314.704 208.741 316.24 209.701 318.224C210.661 320.208 211.141 322.56 211.141 325.28C211.141 327.968 210.661 330.32 209.701 332.336C208.741 334.32 207.381 335.856 205.621 336.944C203.893 338.032 201.861 338.576 199.525 338.576ZM199.525 334.736C201.861 334.736 203.669 333.904 204.949 332.24C206.261 330.544 206.917 328.224 206.917 325.28C206.917 322.336 206.261 320.032 204.949 318.368C203.669 316.672 201.861 315.824 199.525 315.824C197.189 315.824 195.365 316.672 194.053 318.368C192.773 320.032 192.133 322.336 192.133 325.28C192.133 328.224 192.773 330.544 194.053 332.24C195.365 333.904 197.189 334.736 199.525 334.736ZM217.938 338V312.56H221.634L221.778 319.04L221.298 318.608C221.618 317.104 222.194 315.872 223.026 314.912C223.89 313.92 224.914 313.184 226.098 312.704C227.282 312.224 228.53 311.984 229.842 311.984C231.794 311.984 233.41 312.416 234.69 313.28C236.002 314.144 236.994 315.312 237.666 316.784C238.338 318.224 238.674 319.84 238.674 321.632V338H234.642V322.784C234.642 320.416 234.178 318.624 233.25 317.408C232.322 316.16 230.898 315.536 228.978 315.536C227.666 315.536 226.482 315.824 225.426 316.4C224.37 316.944 223.522 317.76 222.882 318.848C222.274 319.904 221.97 321.216 221.97 322.784V338H217.938ZM253.728 338.576C252.128 338.576 250.688 338.288 249.408 337.712C248.128 337.136 247.12 336.336 246.384 335.312C245.648 334.256 245.28 333.04 245.28 331.664C245.28 329.488 245.92 327.808 247.2 326.624C248.512 325.408 250.56 324.528 253.344 323.984L261.888 322.256C261.888 320.08 261.392 318.464 260.4 317.408C259.44 316.352 258.048 315.824 256.224 315.824C254.464 315.824 253.088 316.224 252.096 317.024C251.104 317.792 250.416 318.912 250.032 320.384L245.76 320.048C246.24 317.648 247.376 315.712 249.168 314.24C250.992 312.736 253.344 311.984 256.224 311.984C259.296 311.984 261.68 312.912 263.376 314.768C265.072 316.592 265.92 319.12 265.92 322.352V332.912C265.92 333.488 266.048 333.888 266.304 334.112C266.56 334.336 266.944 334.448 267.456 334.448H269.088V338C268.896 338.032 268.592 338.048 268.176 338.048C267.76 338.08 267.36 338.096 266.976 338.096C265.888 338.096 264.96 337.92 264.192 337.568C263.456 337.216 262.896 336.656 262.512 335.888C262.128 335.088 261.92 334.064 261.888 332.816H262.656C262.432 333.904 261.888 334.896 261.024 335.792C260.192 336.656 259.136 337.344 257.856 337.856C256.576 338.336 255.2 338.576 253.728 338.576ZM254.112 335.024C255.84 335.024 257.28 334.736 258.432 334.16C259.584 333.552 260.448 332.72 261.024 331.664C261.6 330.576 261.888 329.328 261.888 327.92V325.712L254.112 327.248C252.384 327.568 251.184 328.064 250.512 328.736C249.84 329.376 249.504 330.224 249.504 331.28C249.504 332.464 249.904 333.392 250.704 334.064C251.536 334.704 252.672 335.024 254.112 335.024ZM284.573 338V310.736C284.573 309.712 284.285 308.912 283.709 308.336C283.133 307.76 282.333 307.472 281.309 307.472H275.309V303.92H281.501C283.837 303.92 285.597 304.528 286.781 305.744C287.997 306.928 288.605 308.688 288.605 311.024V338H284.573ZM274.349 338V334.448H297.389V338H274.349Z" fill="white"/>
</svg>
