<svg width="400" height="400" viewBox="0 0 400 400" fill="none" xmlns="http://www.w3.org/2000/svg">
<rect width="400" height="400" rx="16" fill="#F9F9FF"/>
<path fill-rule="evenodd" clip-rule="evenodd" d="M188.101 131.689C192.252 128.401 196.991 125.934 202.066 124.421C207.147 122.763 212.529 122.234 217.836 122.869C218.185 122.953 218.548 122.963 218.902 122.9C219.255 122.836 219.592 122.701 219.891 122.502C220.19 122.302 220.445 122.044 220.639 121.742C220.833 121.44 220.963 121.101 221.021 120.746C221.104 120.386 221.112 120.013 221.044 119.649C220.977 119.286 220.835 118.94 220.628 118.634C220.422 118.327 220.154 118.067 219.842 117.868C219.53 117.67 219.181 117.537 218.816 117.479C212.729 116.214 206.446 116.214 200.359 117.479C194.193 118.701 188.297 121.025 182.956 124.339C180.729 125.484 178.77 127.087 177.207 129.044C175.645 131 174.514 133.266 173.891 135.691C173.672 137.637 173.905 139.607 174.57 141.448C175.236 143.289 176.317 144.952 177.73 146.308C179.531 148.323 181.715 149.961 184.154 151.126C186.593 152.291 189.24 152.96 191.94 153.094C197.229 153.194 202.499 152.421 207.538 150.808C211.421 149.461 215.528 148.879 219.633 149.093C226.329 150.154 233.434 154.319 240.458 155.708C244.111 156.561 247.928 156.391 251.491 155.218C251.882 155.1 252.247 154.906 252.563 154.647C252.88 154.388 253.142 154.07 253.336 153.709C253.529 153.349 253.649 152.954 253.69 152.548C253.731 152.141 253.691 151.73 253.573 151.338C253.455 150.947 253.261 150.583 253.003 150.266C252.744 149.95 252.425 149.687 252.065 149.494C251.705 149.3 251.31 149.18 250.903 149.139C250.496 149.098 250.086 149.138 249.694 149.256C247.176 149.899 244.536 149.899 242.018 149.256C234.994 147.296 228.053 142.396 221.356 141.089C215.928 140.103 210.352 140.298 205.006 141.661C200.912 142.798 196.678 143.347 192.43 143.294C189.633 143.126 187.005 141.9 185.08 139.864C184.1 138.803 183.446 138.149 183.773 137.333C184.526 135.013 186.054 133.023 188.101 131.698" fill="black"/>
<path fill-rule="evenodd" clip-rule="evenodd" d="M283.439 120.665C274.7 116.99 267.097 112.498 258.522 108.333C252.867 105.454 246.96 103.1 240.874 101.301C230.633 98.4656 219.886 97.9632 209.424 99.8313C210.922 94.1691 211.956 88.4252 212.528 82.5997C213.016 77.5006 212.796 72.3586 211.874 67.3198C209.833 57.5933 204.606 54 200.033 54C196.981 54.2847 194.048 55.3215 191.496 57.0174C188.943 58.7134 186.851 61.0157 185.406 63.7183L179.608 73.9267C175.568 82.9883 172.101 92.2949 169.228 101.791H168.248C161.159 106.457 155.009 112.413 150.118 119.35C147.575 122.671 145.357 126.229 143.495 129.975C141.593 133.784 140.087 137.78 139.003 141.898C138.173 144.97 137.983 148.18 138.447 151.329C138.911 154.477 140.017 157.497 141.698 160.199C143.324 162.36 145.734 163.794 148.409 164.191C151.083 164.589 153.806 163.917 155.99 162.323C153.561 172.338 152.193 182.581 151.907 192.882C151.977 194.151 152.168 195.403 152.478 196.639C152.74 197.951 153.121 199.231 153.622 200.477C154.852 203.363 156.376 206.085 158.195 208.644C159.257 211.176 164.973 212.646 175.108 203.254C176.17 202.274 177.15 201.212 178.048 200.069C178.963 198.931 179.779 197.733 180.498 196.476C181.914 193.563 183.166 190.596 184.255 187.574C187.252 190.155 190.682 192.172 194.389 193.536C196.578 194.352 198.838 194.842 201.168 195.006C204.712 195.251 208.273 194.924 211.703 194.026C212.438 194.026 213.009 193.127 213.744 192.801C219.638 196.593 226.44 198.736 233.442 199.007C238.308 198.956 243.155 198.381 247.897 197.292C254.447 195.54 261.107 194.23 267.832 193.372C268.655 193.372 269.445 193.045 270.027 192.463C270.609 191.881 270.936 191.092 270.936 190.269C270.936 189.446 270.609 188.657 270.027 188.075C269.445 187.493 268.655 187.166 267.832 187.166C259.666 186.561 251.458 186.757 243.332 187.737L234.096 188.636H228.216C225.464 188.636 222.72 188.333 220.049 187.737C221 186.745 221.798 185.616 222.418 184.389C223.491 182.091 223.693 179.482 222.986 177.046C222.278 174.61 220.709 172.515 218.571 171.151H217.428C219.3 169.913 220.898 168.302 222.12 166.419C223.343 164.537 224.164 162.422 224.533 160.208C224.857 158.146 224.538 156.035 223.617 154.162C222.696 152.29 221.219 150.747 219.388 149.746C218.725 149.327 217.927 149.175 217.157 149.32C216.386 149.465 215.698 149.896 215.233 150.527C214.767 151.158 214.558 151.943 214.647 152.722C214.736 153.501 215.117 154.218 215.713 154.728C216.25 155.207 216.631 155.838 216.806 156.537C216.981 157.236 216.941 157.971 216.693 158.648C216.153 159.812 215.347 160.833 214.34 161.627C213.333 162.422 212.152 162.968 210.894 163.221C208.897 163.597 206.848 163.597 204.851 163.221L199.951 162.731C197.555 162.373 195.18 161.883 192.838 161.261V156.769C193.021 156.409 193.123 156.014 193.137 155.61C193.152 155.207 193.078 154.805 192.921 154.433C192.764 154.061 192.528 153.728 192.229 153.456C191.93 153.185 191.576 152.982 191.191 152.861C190.805 152.741 190.398 152.706 189.998 152.759C189.598 152.812 189.214 152.952 188.873 153.168C188.532 153.385 188.243 153.673 188.025 154.013C187.807 154.353 187.666 154.736 187.611 155.136C186.795 156.606 181.568 166.896 181.16 168.203C180.766 169.597 180.466 171.015 180.261 172.449C180.228 173.048 180.228 173.648 180.261 174.246C178.138 173.348 176.341 172.286 174.218 171.469C173.334 171.053 172.401 170.751 171.441 170.571C170.526 170.355 169.595 170.218 168.656 170.163C166.125 170.163 164.001 170.653 161.551 170.816H161.061C165.471 153.584 169.963 135.618 175.108 117.97C178.727 104.49 183.341 91.2976 188.91 78.5L193.491 69.1083C195.37 65.9233 197.33 63.3917 199.616 63.31C201.903 63.2283 202.638 65.515 203.618 69.3533C204.68 73.6234 205.12 78.0243 204.924 82.42C204.652 89.3726 203.727 96.2353 202.148 103.008C201.973 103.808 202.113 104.645 202.539 105.345C202.965 106.044 203.643 106.553 204.435 106.765C205.083 106.886 205.753 106.792 206.343 106.498C206.932 106.203 207.409 105.723 207.701 105.132C208.045 105.25 208.419 105.25 208.763 105.132C216.195 105.148 223.585 106.308 230.666 108.562C233.279 109.378 235.893 110.358 238.424 111.257C242.426 112.645 246.591 114.197 250.266 115.667C260.393 119.505 270.609 123.425 281.397 126.373C282.188 126.634 283.05 126.576 283.798 126.209C284.546 125.843 285.121 125.198 285.399 124.413C285.63 123.655 285.554 122.836 285.188 122.134C284.821 121.431 284.193 120.9 283.439 120.656M156.243 152.033C155.256 153.237 153.996 154.189 152.568 154.809C151.646 155.154 150.631 155.154 149.71 154.809C149.056 154.809 149.056 153.748 148.811 153.013C147.917 150.113 147.917 147.011 148.811 144.111C150.006 139.912 151.535 135.816 153.385 131.861C155.176 127.767 157.245 123.817 159.591 120.011C161.551 117.142 163.702 114.42 166.043 111.845C166.043 113.315 165.145 114.621 164.736 116.091C162.128 126.9 159.894 137.795 158.04 148.758C157.631 149.901 157.06 150.971 156.243 152.033ZM200.025 173.266C204.271 174.491 208.771 174.491 213.01 173.266C212.804 173.831 212.773 174.445 212.918 175.028C213.063 175.611 213.38 176.138 213.826 176.541C214.391 177.217 214.7 178.069 214.7 178.95C214.7 179.831 214.391 180.683 213.826 181.359C213.212 182.164 212.438 182.834 211.552 183.326C210.667 183.818 209.689 184.121 208.681 184.217C206.217 184.766 203.69 184.986 201.168 184.871C198.433 184.999 195.692 184.807 193.001 184.299C190.439 183.742 187.966 182.835 185.651 181.604C186.713 179.644 187.775 177.766 188.673 175.806C189.299 174.483 189.816 173.122 190.225 171.723C190.426 171.015 190.589 170.307 190.715 169.599C193.654 171.2 196.782 172.425 200.025 173.266ZM159.918 176.549C161.916 177.986 164.012 179.266 166.206 180.387C167.116 180.812 168.068 181.111 169.065 181.286C170.072 181.367 171.079 181.367 172.086 181.286C174.466 181.215 176.834 181.024 179.191 180.714V182.592C178.94 183.25 178.94 183.977 179.191 184.634C176.496 186.741 173.937 189 171.515 191.412C170.149 193.09 168.868 194.834 167.676 196.639C166.288 198.762 165.063 200.976 163.756 203.099C163.756 201.193 163.593 199.315 163.266 197.464C163.093 195.476 162.737 193.507 162.205 191.584C161.06 188.334 159.525 185.235 157.631 182.355C157.631 182.355 158.121 181.784 158.203 181.457C158.693 179.661 159.183 177.782 159.591 175.977C159.673 176.549 159.755 176.549 159.918 176.549Z" fill="black"/>
<path fill-rule="evenodd" clip-rule="evenodd" d="M190.878 228.987C181.703 225.406 171.689 224.555 162.041 226.537L152.405 228.987L142.025 230.457C139.88 230.539 137.756 230.376 135.655 229.967C133.689 229.556 131.792 228.869 130.02 227.926C126.672 226.211 124.385 224.169 123.977 221.637C123.813 220.064 124.075 218.476 124.736 217.039C125.397 215.603 126.432 214.37 127.733 213.471C130.844 210.802 134.452 208.776 138.35 207.509C142.443 206.221 146.719 205.614 151.008 205.712C151.658 205.605 152.248 205.271 152.675 204.769C153.101 204.268 153.335 203.631 153.335 202.972C153.335 202.314 153.101 201.677 152.675 201.175C152.248 200.673 151.658 200.339 151.008 200.232C146.178 199.706 141.294 199.982 136.553 201.049C131.564 202.146 126.844 204.229 122.67 207.174C120.043 208.772 117.897 211.05 116.459 213.767C115.02 216.483 114.341 219.538 114.495 222.609C114.935 225.688 116.126 228.611 117.964 231.121C119.801 233.63 122.228 235.649 125.03 236.999C127.562 238.485 130.322 239.563 133.197 240.184C136.096 240.796 139.06 241.041 142.017 240.919C144.194 240.859 146.348 240.641 148.477 240.265C150.518 240.265 152.56 239.449 154.602 238.959L164.402 235.774C171.863 233.522 179.823 233.522 187.285 235.774C188.591 236.345 189.816 236.917 190.143 238.142C190.47 239.367 190.143 242.062 187.775 245.002C187.408 245.496 187.195 246.086 187.162 246.7C187.129 247.314 187.278 247.924 187.59 248.454C187.902 248.984 188.363 249.41 188.916 249.679C189.469 249.948 190.089 250.048 190.698 249.967C191.104 249.912 191.495 249.776 191.848 249.569C192.201 249.361 192.51 249.086 192.756 248.759C194.362 247.152 195.574 245.195 196.297 243.041C197.02 240.888 197.233 238.596 196.921 236.345C196.501 234.758 195.743 233.28 194.7 232.012C193.658 230.743 192.354 229.706 190.878 228.987Z" fill="black"/>
<path d="M88.82 341V306.92H99.188C101.556 306.92 103.62 307.336 105.38 308.168C107.14 309 108.5 310.2 109.46 311.768C110.42 313.304 110.9 315.16 110.9 317.336C110.9 319.512 110.42 321.384 109.46 322.952C108.5 324.488 107.14 325.672 105.38 326.504C103.62 327.336 101.556 327.752 99.188 327.752H92.948V341H88.82ZM92.948 323.72H98.708C101.396 323.72 103.38 323.176 104.66 322.088C105.94 320.968 106.58 319.384 106.58 317.336C106.58 315.256 105.94 313.672 104.66 312.584C103.38 311.496 101.396 310.952 98.708 310.952H92.948V323.72ZM128.113 341.576C125.713 341.576 123.633 341.032 121.873 339.944C120.145 338.856 118.801 337.32 117.841 335.336C116.913 333.32 116.449 330.968 116.449 328.28C116.449 325.592 116.913 323.256 117.841 321.272C118.801 319.288 120.129 317.752 121.825 316.664C123.553 315.544 125.585 314.984 127.921 314.984C130.129 314.984 132.081 315.512 133.777 316.568C135.473 317.592 136.801 319.096 137.761 321.08C138.721 323.064 139.201 325.48 139.201 328.328V329.528H120.673C120.833 332.248 121.553 334.296 122.833 335.672C124.145 337.048 125.905 337.736 128.113 337.736C129.777 337.736 131.137 337.352 132.193 336.584C133.281 335.784 134.033 334.744 134.449 333.464L138.769 333.8C138.097 336.072 136.817 337.944 134.929 339.416C133.073 340.856 130.801 341.576 128.113 341.576ZM120.673 325.976H134.785C134.593 323.512 133.873 321.704 132.625 320.552C131.377 319.4 129.809 318.824 127.921 318.824C125.969 318.824 124.353 319.432 123.073 320.648C121.825 321.832 121.025 323.608 120.673 325.976ZM153.007 341V315.56H156.367L156.751 321.992L156.367 321.896C156.687 319.72 157.375 318.12 158.431 317.096C159.519 316.072 160.959 315.56 162.751 315.56H167.983V319.208H162.799C161.551 319.208 160.495 319.464 159.631 319.976C158.799 320.456 158.159 321.176 157.711 322.136C157.263 323.064 157.039 324.232 157.039 325.64V341H153.007ZM146.383 341V337.448H165.103V341H146.383ZM146.383 319.112V315.56H155.215V319.112H146.383ZM185.724 341.576C183.516 341.576 181.612 341.192 180.012 340.424C178.412 339.656 177.148 338.632 176.22 337.352C175.324 336.04 174.812 334.584 174.684 332.984L178.908 332.696C179.164 334.264 179.852 335.496 180.972 336.392C182.124 337.288 183.708 337.736 185.724 337.736C187.612 337.736 189.068 337.464 190.092 336.92C191.148 336.376 191.676 335.528 191.676 334.376C191.676 333.64 191.5 333.032 191.148 332.552C190.796 332.072 190.14 331.672 189.18 331.352C188.22 331 186.812 330.664 184.956 330.344C182.492 329.896 180.556 329.352 179.148 328.712C177.772 328.04 176.796 327.208 176.22 326.216C175.644 325.224 175.356 324.04 175.356 322.664C175.356 321.192 175.724 319.88 176.46 318.728C177.196 317.576 178.284 316.664 179.724 315.992C181.164 315.32 182.924 314.984 185.004 314.984C187.116 314.984 188.876 315.368 190.284 316.136C191.724 316.872 192.86 317.864 193.692 319.112C194.524 320.328 195.068 321.672 195.324 323.144L191.1 323.432C190.908 322.536 190.54 321.752 189.996 321.08C189.484 320.376 188.796 319.832 187.932 319.448C187.1 319.032 186.108 318.824 184.956 318.824C183.1 318.824 181.724 319.192 180.828 319.928C179.932 320.664 179.484 321.576 179.484 322.664C179.484 323.528 179.692 324.216 180.108 324.728C180.524 325.24 181.196 325.656 182.124 325.976C183.052 326.264 184.284 326.536 185.82 326.792C188.444 327.208 190.476 327.752 191.916 328.424C193.356 329.064 194.364 329.864 194.94 330.824C195.516 331.784 195.804 332.968 195.804 334.376C195.804 335.88 195.356 337.176 194.46 338.264C193.596 339.32 192.396 340.136 190.86 340.712C189.356 341.288 187.644 341.576 185.724 341.576ZM214.025 341.576C211.689 341.576 209.641 341.032 207.881 339.944C206.153 338.856 204.809 337.32 203.849 335.336C202.889 333.32 202.409 330.968 202.409 328.28C202.409 325.56 202.889 323.208 203.849 321.224C204.809 319.24 206.153 317.704 207.881 316.616C209.641 315.528 211.689 314.984 214.025 314.984C216.361 314.984 218.393 315.528 220.121 316.616C221.881 317.704 223.241 319.24 224.201 321.224C225.161 323.208 225.641 325.56 225.641 328.28C225.641 330.968 225.161 333.32 224.201 335.336C223.241 337.32 221.881 338.856 220.121 339.944C218.393 341.032 216.361 341.576 214.025 341.576ZM214.025 337.736C216.361 337.736 218.169 336.904 219.449 335.24C220.761 333.544 221.417 331.224 221.417 328.28C221.417 325.336 220.761 323.032 219.449 321.368C218.169 319.672 216.361 318.824 214.025 318.824C211.689 318.824 209.865 319.672 208.553 321.368C207.273 323.032 206.633 325.336 206.633 328.28C206.633 331.224 207.273 333.544 208.553 335.24C209.865 336.904 211.689 337.736 214.025 337.736ZM232.438 341V315.56H236.134L236.278 322.04L235.798 321.608C236.118 320.104 236.694 318.872 237.526 317.912C238.39 316.92 239.414 316.184 240.598 315.704C241.782 315.224 243.03 314.984 244.342 314.984C246.294 314.984 247.91 315.416 249.19 316.28C250.502 317.144 251.494 318.312 252.166 319.784C252.838 321.224 253.174 322.84 253.174 324.632V341H249.142V325.784C249.142 323.416 248.678 321.624 247.75 320.408C246.822 319.16 245.398 318.536 243.478 318.536C242.166 318.536 240.982 318.824 239.926 319.4C238.87 319.944 238.022 320.76 237.382 321.848C236.774 322.904 236.47 324.216 236.47 325.784V341H232.438ZM268.228 341.576C266.628 341.576 265.188 341.288 263.908 340.712C262.628 340.136 261.62 339.336 260.884 338.312C260.148 337.256 259.78 336.04 259.78 334.664C259.78 332.488 260.42 330.808 261.7 329.624C263.012 328.408 265.06 327.528 267.844 326.984L276.388 325.256C276.388 323.08 275.892 321.464 274.9 320.408C273.94 319.352 272.548 318.824 270.724 318.824C268.964 318.824 267.588 319.224 266.596 320.024C265.604 320.792 264.916 321.912 264.532 323.384L260.26 323.048C260.74 320.648 261.876 318.712 263.668 317.24C265.492 315.736 267.844 314.984 270.724 314.984C273.796 314.984 276.18 315.912 277.876 317.768C279.572 319.592 280.42 322.12 280.42 325.352V335.912C280.42 336.488 280.548 336.888 280.804 337.112C281.06 337.336 281.444 337.448 281.956 337.448H283.588V341C283.396 341.032 283.092 341.048 282.676 341.048C282.26 341.08 281.86 341.096 281.476 341.096C280.388 341.096 279.46 340.92 278.692 340.568C277.956 340.216 277.396 339.656 277.012 338.888C276.628 338.088 276.42 337.064 276.388 335.816H277.156C276.932 336.904 276.388 337.896 275.524 338.792C274.692 339.656 273.636 340.344 272.356 340.856C271.076 341.336 269.7 341.576 268.228 341.576ZM268.612 338.024C270.34 338.024 271.78 337.736 272.932 337.16C274.084 336.552 274.948 335.72 275.524 334.664C276.1 333.576 276.388 332.328 276.388 330.92V328.712L268.612 330.248C266.884 330.568 265.684 331.064 265.012 331.736C264.34 332.376 264.004 333.224 264.004 334.28C264.004 335.464 264.404 336.392 265.204 337.064C266.036 337.704 267.172 338.024 268.612 338.024ZM299.073 341V313.736C299.073 312.712 298.785 311.912 298.209 311.336C297.633 310.76 296.833 310.472 295.809 310.472H289.809V306.92H296.001C298.337 306.92 300.097 307.528 301.281 308.744C302.497 309.928 303.105 311.688 303.105 314.024V341H299.073ZM288.849 341V337.448H311.889V341H288.849Z" fill="#1F1F1F"/>
</svg>
