<svg width="211" height="211" viewBox="0 0 211 211" fill="none" xmlns="http://www.w3.org/2000/svg">
<path d="M0 16C0 7.16344 7.16344 0 16 0H195C203.837 0 211 7.16344 211 16V195C211 203.837 203.837 211 195 211H16C7.16344 211 0 203.837 0 195V16Z" fill="#FFEA00"/>
<path d="M73.0568 110V101.273H76.0057C76.6903 101.273 77.25 101.396 77.6847 101.643C78.1222 101.888 78.446 102.219 78.6562 102.636C78.8665 103.054 78.9716 103.52 78.9716 104.034C78.9716 104.548 78.8665 105.016 78.6562 105.436C78.4489 105.857 78.1278 106.192 77.6932 106.442C77.2585 106.689 76.7017 106.812 76.0227 106.812H73.9091V105.875H75.9886C76.4574 105.875 76.8338 105.794 77.1179 105.632C77.402 105.47 77.608 105.251 77.7358 104.976C77.8665 104.697 77.9318 104.384 77.9318 104.034C77.9318 103.685 77.8665 103.372 77.7358 103.097C77.608 102.821 77.4006 102.605 77.1136 102.449C76.8267 102.29 76.446 102.21 75.9716 102.21H74.1136V110H73.0568ZM81.5433 101.273V110H80.5376V101.273H81.5433ZM85.3114 110.153C84.8967 110.153 84.5202 110.075 84.1822 109.919C83.8441 109.76 83.5756 109.531 83.3768 109.233C83.1779 108.932 83.0785 108.568 83.0785 108.142C83.0785 107.767 83.1523 107.463 83.3001 107.23C83.4478 106.994 83.6452 106.81 83.8924 106.676C84.1396 106.543 84.4123 106.443 84.7106 106.378C85.0117 106.31 85.3143 106.256 85.6183 106.216C86.016 106.165 86.3384 106.126 86.5856 106.101C86.8356 106.072 87.0174 106.026 87.131 105.96C87.2475 105.895 87.3058 105.781 87.3058 105.619V105.585C87.3058 105.165 87.1907 104.838 86.9606 104.605C86.7333 104.372 86.3881 104.256 85.9251 104.256C85.445 104.256 85.0685 104.361 84.7958 104.571C84.5231 104.781 84.3313 105.006 84.2205 105.244L83.266 104.903C83.4364 104.506 83.6637 104.196 83.9478 103.974C84.2347 103.75 84.5472 103.594 84.8853 103.506C85.2262 103.415 85.5614 103.369 85.891 103.369C86.1012 103.369 86.3427 103.395 86.6154 103.446C86.891 103.494 87.1566 103.595 87.4123 103.749C87.6708 103.902 87.8853 104.134 88.0558 104.443C88.2262 104.753 88.3114 105.168 88.3114 105.688V110H87.3058V109.114H87.2546C87.1864 109.256 87.0728 109.408 86.9137 109.57C86.7546 109.732 86.543 109.869 86.2788 109.983C86.0146 110.097 85.6921 110.153 85.3114 110.153ZM85.4648 109.25C85.8626 109.25 86.1978 109.172 86.4705 109.016C86.7461 108.859 86.9535 108.658 87.0927 108.411C87.2347 108.163 87.3058 107.903 87.3058 107.631V106.71C87.2631 106.761 87.1694 106.808 87.0245 106.851C86.8825 106.891 86.7177 106.926 86.5302 106.957C86.3455 106.986 86.1651 107.011 85.989 107.034C85.8157 107.054 85.6751 107.071 85.5671 107.085C85.3058 107.119 85.0614 107.175 84.8342 107.251C84.6097 107.325 84.4279 107.437 84.2887 107.588C84.1523 107.736 84.0842 107.937 84.0842 108.193C84.0842 108.543 84.2134 108.807 84.4719 108.986C84.7333 109.162 85.0643 109.25 85.4648 109.25ZM92.8061 110.136C92.1925 110.136 91.6641 109.991 91.2209 109.702C90.7777 109.412 90.4368 109.013 90.1982 108.504C89.9595 107.996 89.8402 107.415 89.8402 106.761C89.8402 106.097 89.9624 105.51 90.2067 105.001C90.4538 104.49 90.7976 104.091 91.2379 103.804C91.6811 103.514 92.1982 103.369 92.7891 103.369C93.2493 103.369 93.6641 103.455 94.0334 103.625C94.4027 103.795 94.7053 104.034 94.9411 104.341C95.1768 104.648 95.3232 105.006 95.38 105.415H94.3743C94.2976 105.116 94.1271 104.852 93.8629 104.622C93.6016 104.389 93.2493 104.273 92.8061 104.273C92.4141 104.273 92.0703 104.375 91.7749 104.58C91.4822 104.781 91.2536 105.067 91.0888 105.436C90.9268 105.803 90.8459 106.233 90.8459 106.727C90.8459 107.233 90.9254 107.673 91.0845 108.048C91.2464 108.423 91.4737 108.714 91.7663 108.922C92.0618 109.129 92.4084 109.233 92.8061 109.233C93.0675 109.233 93.3047 109.188 93.5178 109.097C93.7308 109.006 93.9112 108.875 94.0589 108.705C94.2067 108.534 94.3118 108.33 94.3743 108.091H95.38C95.3232 108.477 95.1825 108.825 94.9581 109.135C94.7365 109.442 94.4425 109.686 94.076 109.868C93.7124 110.047 93.2891 110.136 92.8061 110.136ZM99.5945 110.136C98.9638 110.136 98.4197 109.997 97.9624 109.719C97.5078 109.438 97.157 109.045 96.9098 108.543C96.6655 108.037 96.5433 107.449 96.5433 106.778C96.5433 106.108 96.6655 105.517 96.9098 105.006C97.157 104.491 97.5007 104.091 97.9411 103.804C98.3842 103.514 98.9013 103.369 99.4922 103.369C99.8331 103.369 100.17 103.426 100.502 103.54C100.835 103.653 101.137 103.838 101.41 104.094C101.683 104.347 101.9 104.682 102.062 105.099C102.224 105.517 102.305 106.031 102.305 106.642V107.068H97.2592V106.199H101.282C101.282 105.83 101.208 105.5 101.06 105.21C100.915 104.92 100.708 104.692 100.438 104.524C100.171 104.357 99.8558 104.273 99.4922 104.273C99.0916 104.273 98.745 104.372 98.4524 104.571C98.1626 104.767 97.9396 105.023 97.7834 105.338C97.6271 105.653 97.549 105.991 97.549 106.352V106.932C97.549 107.426 97.6342 107.845 97.8047 108.189C97.978 108.53 98.218 108.79 98.5249 108.969C98.8317 109.145 99.1882 109.233 99.5945 109.233C99.8587 109.233 100.097 109.196 100.31 109.122C100.526 109.045 100.712 108.932 100.869 108.781C101.025 108.628 101.146 108.437 101.231 108.21L102.202 108.483C102.1 108.812 101.928 109.102 101.687 109.352C101.445 109.599 101.147 109.793 100.792 109.932C100.437 110.068 100.038 110.136 99.5945 110.136ZM104.84 106.062V110H103.835V101.273H104.84V104.477H104.925C105.079 104.139 105.309 103.871 105.616 103.672C105.925 103.47 106.337 103.369 106.852 103.369C107.298 103.369 107.688 103.459 108.023 103.638C108.359 103.814 108.619 104.085 108.803 104.452C108.991 104.815 109.085 105.278 109.085 105.841V110H108.079V105.909C108.079 105.389 107.944 104.987 107.674 104.703C107.407 104.416 107.036 104.273 106.562 104.273C106.232 104.273 105.937 104.342 105.675 104.482C105.417 104.621 105.212 104.824 105.062 105.091C104.914 105.358 104.84 105.682 104.84 106.062ZM113.583 110.136C112.993 110.136 112.474 109.996 112.028 109.714C111.585 109.433 111.238 109.04 110.988 108.534C110.741 108.028 110.618 107.437 110.618 106.761C110.618 106.08 110.741 105.484 110.988 104.976C111.238 104.467 111.585 104.072 112.028 103.791C112.474 103.51 112.993 103.369 113.583 103.369C114.174 103.369 114.691 103.51 115.135 103.791C115.581 104.072 115.927 104.467 116.174 104.976C116.424 105.484 116.549 106.08 116.549 106.761C116.549 107.437 116.424 108.028 116.174 108.534C115.927 109.04 115.581 109.433 115.135 109.714C114.691 109.996 114.174 110.136 113.583 110.136ZM113.583 109.233C114.032 109.233 114.402 109.118 114.691 108.888C114.981 108.658 115.196 108.355 115.335 107.98C115.474 107.605 115.544 107.199 115.544 106.761C115.544 106.324 115.474 105.916 115.335 105.538C115.196 105.161 114.981 104.855 114.691 104.622C114.402 104.389 114.032 104.273 113.583 104.273C113.135 104.273 112.765 104.389 112.475 104.622C112.186 104.855 111.971 105.161 111.832 105.538C111.693 105.916 111.623 106.324 111.623 106.761C111.623 107.199 111.693 107.605 111.832 107.98C111.971 108.355 112.186 108.658 112.475 108.888C112.765 109.118 113.135 109.233 113.583 109.233ZM119.09 101.273V110H118.085V101.273H119.09ZM123.404 110.136C122.858 110.136 122.377 109.999 121.959 109.723C121.542 109.445 121.215 109.053 120.979 108.547C120.743 108.038 120.625 107.438 120.625 106.744C120.625 106.057 120.743 105.46 120.979 104.955C121.215 104.449 121.543 104.058 121.963 103.783C122.384 103.507 122.87 103.369 123.421 103.369C123.847 103.369 124.184 103.44 124.431 103.582C124.681 103.722 124.871 103.881 125.002 104.06C125.135 104.236 125.239 104.381 125.313 104.494H125.398V101.273H126.404V110H125.432V108.994H125.313C125.239 109.114 125.134 109.264 124.998 109.446C124.861 109.625 124.667 109.786 124.414 109.928C124.161 110.067 123.824 110.136 123.404 110.136ZM123.54 109.233C123.944 109.233 124.284 109.128 124.563 108.918C124.841 108.705 125.053 108.411 125.198 108.036C125.343 107.658 125.415 107.222 125.415 106.727C125.415 106.239 125.344 105.811 125.202 105.445C125.06 105.075 124.85 104.788 124.571 104.584C124.293 104.376 123.949 104.273 123.54 104.273C123.114 104.273 122.759 104.382 122.475 104.601C122.194 104.817 121.982 105.111 121.84 105.483C121.701 105.852 121.631 106.267 121.631 106.727C121.631 107.193 121.702 107.616 121.844 107.997C121.989 108.375 122.202 108.676 122.483 108.901C122.767 109.122 123.12 109.233 123.54 109.233ZM131.13 110.136C130.499 110.136 129.955 109.997 129.498 109.719C129.043 109.438 128.692 109.045 128.445 108.543C128.201 108.037 128.078 107.449 128.078 106.778C128.078 106.108 128.201 105.517 128.445 105.006C128.692 104.491 129.036 104.091 129.476 103.804C129.919 103.514 130.436 103.369 131.027 103.369C131.368 103.369 131.705 103.426 132.037 103.54C132.37 103.653 132.672 103.838 132.945 104.094C133.218 104.347 133.435 104.682 133.597 105.099C133.759 105.517 133.84 106.031 133.84 106.642V107.068H128.794V106.199H132.817C132.817 105.83 132.743 105.5 132.596 105.21C132.451 104.92 132.243 104.692 131.973 104.524C131.706 104.357 131.391 104.273 131.027 104.273C130.627 104.273 130.28 104.372 129.988 104.571C129.698 104.767 129.475 105.023 129.319 105.338C129.162 105.653 129.084 105.991 129.084 106.352V106.932C129.084 107.426 129.169 107.845 129.34 108.189C129.513 108.53 129.753 108.79 130.06 108.969C130.367 109.145 130.723 109.233 131.13 109.233C131.394 109.233 131.632 109.196 131.846 109.122C132.061 109.045 132.248 108.932 132.404 108.781C132.56 108.628 132.681 108.437 132.766 108.21L133.738 108.483C133.635 108.812 133.463 109.102 133.222 109.352C132.98 109.599 132.682 109.793 132.327 109.932C131.972 110.068 131.573 110.136 131.13 110.136ZM135.37 110V103.455H136.341V104.443H136.409C136.529 104.119 136.745 103.857 137.057 103.655C137.37 103.453 137.722 103.352 138.114 103.352C138.188 103.352 138.28 103.354 138.391 103.357C138.502 103.359 138.586 103.364 138.642 103.369V104.392C138.608 104.384 138.53 104.371 138.408 104.354C138.289 104.334 138.162 104.324 138.029 104.324C137.711 104.324 137.426 104.391 137.176 104.524C136.929 104.655 136.733 104.837 136.588 105.07C136.446 105.3 136.375 105.562 136.375 105.858V110H135.37Z" fill="#FF0000"/>
</svg>
